<svg version="1.1" xmlns="http://www.w3.org/2000/svg" xmlns:xlink="http://www.w3.org/1999/xlink" width="152" height="99"><defs/><g><g transform="translate(27,-10) scale(1,1)"><rect fill="#C0C0C0" stroke="none" x="36" y="82" width="77" height="24" opacity="0.2"/></g><g transform="translate(27,-10) scale(1,1)"><rect fill="#ffffff" stroke="none" x="29" y="75" width="77" height="24"/></g><g transform="translate(27,-10) scale(1,1)"><path fill="none" stroke="#000000" d="M 29 75 L 106 75 L 106 99 L 29 99 L 29 75 Z Z" stroke-miterlimit="10"/></g><g transform="translate(27,-10) scale(1,1)"><g><path fill="none" stroke="none"/><text fill="#000000" stroke="none" font-family="Arial" font-size="13px" font-style="normal" font-weight="bold" text-decoration="none" x="36" y="94.5">SslHandler</text></g></g><g transform="translate(27,-10) scale(1,1)"><rect fill="#C0C0C0" stroke="none" x="27" y="27" width="95" height="24" opacity="0.2"/></g><g transform="translate(27,-10) scale(1,1)"><rect fill="#ffffff" stroke="none" x="20" y="20" width="95" height="24"/></g><g transform="translate(27,-10) scale(1,1)"><path fill="none" stroke="#000000" d="M 20 20 L 115 20 L 115 44 L 20 44 L 20 20 Z Z" stroke-miterlimit="10"/></g><g transform="translate(27,-10) scale(1,1)"><g><path fill="none" stroke="none"/><text fill="#000000" stroke="none" font-family="Arial" font-size="13px" font-style="normal" font-weight="bold" text-decoration="none" x="27.5" y="39.5">SslBufferPool</text></g></g><g transform="translate(27,-10) scale(1,1)"><path fill="none" stroke="#000000" d="M 60 74 Q 53 60 61 45" stroke-miterlimit="10"/></g><g transform="translate(27,-10) scale(1,1)"><path fill="none" stroke="#000000" d="M 59.93184514583803 55.94801558308766 L 61 45 L 52.503284399927466 51.986116518602024" stroke-miterlimit="10"/></g><g transform="translate(27,-10) scale(1,1)"><g><path fill="none" stroke="none"/><text fill="#000000" stroke="none" font-family="Arial" font-size="13px" font-style="normal" font-weight="normal" text-decoration="none" x="-17.5" y="66.5">-defaultBufferPool</text></g></g><g transform="translate(27,-10) scale(1,1)"><g><path fill="none" stroke="none"/><text fill="#000000" stroke="none" font-family="Arial" font-size="13px" font-style="normal" font-weight="normal" text-decoration="none" x="-13.5" y="62.5">{static=true}</text></g></g><g transform="translate(27,-10) scale(1,1)"><path fill="none" stroke="#000000" d="M 75 74 Q 83 60 74 45" stroke-miterlimit="10"/></g><g transform="translate(27,-10) scale(1,1)"><path fill="none" stroke="#000000" d="M 82.83828477448272 51.548642778862416 L 74 45 L 75.61902138159262 55.88020081459648" stroke-miterlimit="10"/></g><g transform="translate(27,-10) scale(1,1)"><g><path fill="none" stroke="none"/><text fill="#000000" stroke="none" font-family="Arial" font-size="13px" font-style="normal" font-weight="normal" text-decoration="none" x="42.5" y="80.5">-bufferPool</text></g></g><g transform="translate(27,-10) scale(1,1)"><g><path fill="none" stroke="none"/><text fill="#000000" stroke="none" font-family="Arial" font-size="13px" font-style="normal" font-weight="normal" text-decoration="none" x="33.5" y="89.5">{readOnly}</text></g></g></g></svg>