<svg version="1.1" xmlns="http://www.w3.org/2000/svg" xmlns:xlink="http://www.w3.org/1999/xlink" width="1159.5" height="409"><defs/><g><g transform="translate(-10,-10) scale(1,1)"><rect fill="#C0C0C0" stroke="none" x="290.5" y="27" width="19.600000000000023" height="15" opacity="0.2"/></g><g transform="translate(-10,-10) scale(1,1)"><rect fill="#C0C0C0" stroke="none" x="290.5" y="41" width="49" height="25" opacity="0.2"/></g><g transform="translate(-10,-10) scale(1,1)"><rect fill="#ffffff" stroke="none" x="283.5" y="35" width="49" height="24"/></g><g transform="translate(-10,-10) scale(1,1)"><path fill="none" stroke="#000000" d="M 283.5 35 L 332.5 35 L 332.5 59 L 283.5 59 L 283.5 35 Z Z" stroke-miterlimit="10"/></g><g transform="translate(-10,-10) scale(1,1)"><rect fill="#ffffff" stroke="none" x="283.5" y="20" width="19.600000000000023" height="15"/></g><g transform="translate(-10,-10) scale(1,1)"><path fill="none" stroke="#000000" d="M 283.5 20 L 303.1 20 L 303.1 35 L 283.5 35 L 283.5 20 Z Z" stroke-miterlimit="10"/></g><g transform="translate(-10,-10) scale(1,1)"><rect fill="#ffffff" stroke="none" x="283.5" y="34" width="49" height="25"/></g><g transform="translate(-10,-10) scale(1,1)"><path fill="none" stroke="#000000" d="M 283.5 34 L 332.5 34 L 332.5 59 L 283.5 59 L 283.5 34 Z Z" stroke-miterlimit="10"/></g><g transform="translate(-10,-10) scale(1,1)"><g><path fill="none" stroke="none"/><text fill="#000000" stroke="none" font-family="Arial" font-size="13px" font-style="normal" font-weight="bold" text-decoration="none" x="299" y="54.5">net</text></g></g><g transform="translate(-10,-10) scale(1,1)"><rect fill="#C0C0C0" stroke="none" x="272.5" y="97" width="34" height="15" opacity="0.2"/></g><g transform="translate(-10,-10) scale(1,1)"><rect fill="#C0C0C0" stroke="none" x="272.5" y="111" width="85" height="25" opacity="0.2"/></g><g transform="translate(-10,-10) scale(1,1)"><rect fill="#ffffff" stroke="none" x="265.5" y="105" width="85" height="24"/></g><g transform="translate(-10,-10) scale(1,1)"><path fill="none" stroke="#000000" d="M 265.5 105 L 350.5 105 L 350.5 129 L 265.5 129 L 265.5 105 Z Z" stroke-miterlimit="10"/></g><g transform="translate(-10,-10) scale(1,1)"><rect fill="#ffffff" stroke="none" x="265.5" y="90" width="34" height="15"/></g><g transform="translate(-10,-10) scale(1,1)"><path fill="none" stroke="#000000" d="M 265.5 90 L 299.5 90 L 299.5 105 L 265.5 105 L 265.5 90 Z Z" stroke-miterlimit="10"/></g><g transform="translate(-10,-10) scale(1,1)"><rect fill="#ffffff" stroke="none" x="265.5" y="104" width="85" height="25"/></g><g transform="translate(-10,-10) scale(1,1)"><path fill="none" stroke="#000000" d="M 265.5 104 L 350.5 104 L 350.5 129 L 265.5 129 L 265.5 104 Z Z" stroke-miterlimit="10"/></g><g transform="translate(-10,-10) scale(1,1)"><g><path fill="none" stroke="none"/><text fill="#000000" stroke="none" font-family="Arial" font-size="13px" font-style="normal" font-weight="bold" text-decoration="none" x="273" y="124.5">gleamynode</text></g></g><g transform="translate(-10,-10) scale(1,1)"><rect fill="#C0C0C0" stroke="none" x="290.5" y="167" width="19.600000000000023" height="15" opacity="0.2"/></g><g transform="translate(-10,-10) scale(1,1)"><rect fill="#C0C0C0" stroke="none" x="290.5" y="181" width="49" height="25" opacity="0.2"/></g><g transform="translate(-10,-10) scale(1,1)"><rect fill="#ffffff" stroke="none" x="283.5" y="175" width="49" height="24"/></g><g transform="translate(-10,-10) scale(1,1)"><path fill="none" stroke="#000000" d="M 283.5 175 L 332.5 175 L 332.5 199 L 283.5 199 L 283.5 175 Z Z" stroke-miterlimit="10"/></g><g transform="translate(-10,-10) scale(1,1)"><rect fill="#ffffff" stroke="none" x="283.5" y="160" width="19.600000000000023" height="15"/></g><g transform="translate(-10,-10) scale(1,1)"><path fill="none" stroke="#000000" d="M 283.5 160 L 303.1 160 L 303.1 175 L 283.5 175 L 283.5 160 Z Z" stroke-miterlimit="10"/></g><g transform="translate(-10,-10) scale(1,1)"><rect fill="#ffffff" stroke="none" x="283.5" y="174" width="49" height="25"/></g><g transform="translate(-10,-10) scale(1,1)"><path fill="none" stroke="#000000" d="M 283.5 174 L 332.5 174 L 332.5 199 L 283.5 199 L 283.5 174 Z Z" stroke-miterlimit="10"/></g><g transform="translate(-10,-10) scale(1,1)"><g><path fill="none" stroke="none"/><text fill="#000000" stroke="none" font-family="Arial" font-size="13px" font-style="normal" font-weight="bold" text-decoration="none" x="293.5" y="194.5">netty</text></g></g><g transform="translate(-10,-10) scale(1,1)"><rect fill="#C0C0C0" stroke="none" x="27" y="237" width="19.6" height="15" opacity="0.2"/></g><g transform="translate(-10,-10) scale(1,1)"><rect fill="#C0C0C0" stroke="none" x="27" y="251" width="49" height="25" opacity="0.2"/></g><g transform="translate(-10,-10) scale(1,1)"><rect fill="#ffffff" stroke="none" x="20" y="245" width="49" height="24"/></g><g transform="translate(-10,-10) scale(1,1)"><path fill="none" stroke="#000000" d="M 20 245 L 69 245 L 69 269 L 20 269 L 20 245 Z Z" stroke-miterlimit="10"/></g><g transform="translate(-10,-10) scale(1,1)"><rect fill="#ffffff" stroke="none" x="20" y="230" width="19.6" height="15"/></g><g transform="translate(-10,-10) scale(1,1)"><path fill="none" stroke="#000000" d="M 20 230 L 39.6 230 L 39.6 245 L 20 245 L 20 230 Z Z" stroke-miterlimit="10"/></g><g transform="translate(-10,-10) scale(1,1)"><rect fill="#ffffff" stroke="none" x="20" y="244" width="49" height="25"/></g><g transform="translate(-10,-10) scale(1,1)"><path fill="none" stroke="#000000" d="M 20 244 L 69 244 L 69 269 L 20 269 L 20 244 Z Z" stroke-miterlimit="10"/></g><g transform="translate(-10,-10) scale(1,1)"><g><path fill="none" stroke="none"/><text fill="#000000" stroke="none" font-family="Arial" font-size="13px" font-style="normal" font-weight="bold" text-decoration="none" x="28" y="264.5">buffer</text></g></g><g transform="translate(-10,-10) scale(1,1)"><rect fill="#C0C0C0" stroke="none" x="107" y="237" width="27.19999999999999" height="15" opacity="0.2"/></g><g transform="translate(-10,-10) scale(1,1)"><rect fill="#C0C0C0" stroke="none" x="107" y="251" width="68" height="25" opacity="0.2"/></g><g transform="translate(-10,-10) scale(1,1)"><rect fill="#ffffff" stroke="none" x="100" y="245" width="68" height="24"/></g><g transform="translate(-10,-10) scale(1,1)"><path fill="none" stroke="#000000" d="M 100 245 L 168 245 L 168 269 L 100 269 L 100 245 Z Z" stroke-miterlimit="10"/></g><g transform="translate(-10,-10) scale(1,1)"><rect fill="#ffffff" stroke="none" x="100" y="230" width="27.200000000000003" height="15"/></g><g transform="translate(-10,-10) scale(1,1)"><path fill="none" stroke="#000000" d="M 100 230 L 127.2 230 L 127.2 245 L 100 245 L 100 230 Z Z" stroke-miterlimit="10"/></g><g transform="translate(-10,-10) scale(1,1)"><rect fill="#ffffff" stroke="none" x="100" y="244" width="68" height="25"/></g><g transform="translate(-10,-10) scale(1,1)"><path fill="none" stroke="#000000" d="M 100 244 L 168 244 L 168 269 L 100 269 L 100 244 Z Z" stroke-miterlimit="10"/></g><g transform="translate(-10,-10) scale(1,1)"><g><path fill="none" stroke="none"/><text fill="#000000" stroke="none" font-family="Arial" font-size="13px" font-style="normal" font-weight="bold" text-decoration="none" x="107" y="264.5">bootstrap</text></g></g><g transform="translate(-10,-10) scale(1,1)"><rect fill="#C0C0C0" stroke="none" x="206" y="237" width="19.599999999999994" height="15" opacity="0.2"/></g><g transform="translate(-10,-10) scale(1,1)"><rect fill="#C0C0C0" stroke="none" x="206" y="251" width="49" height="25" opacity="0.2"/></g><g transform="translate(-10,-10) scale(1,1)"><rect fill="#ffffff" stroke="none" x="199" y="245" width="49" height="24"/></g><g transform="translate(-10,-10) scale(1,1)"><path fill="none" stroke="#000000" d="M 199 245 L 248 245 L 248 269 L 199 269 L 199 245 Z Z" stroke-miterlimit="10"/></g><g transform="translate(-10,-10) scale(1,1)"><rect fill="#ffffff" stroke="none" x="199" y="230" width="19.599999999999994" height="15"/></g><g transform="translate(-10,-10) scale(1,1)"><path fill="none" stroke="#000000" d="M 199 230 L 218.6 230 L 218.6 245 L 199 245 L 199 230 Z Z" stroke-miterlimit="10"/></g><g transform="translate(-10,-10) scale(1,1)"><rect fill="#ffffff" stroke="none" x="199" y="244" width="49" height="25"/></g><g transform="translate(-10,-10) scale(1,1)"><path fill="none" stroke="#000000" d="M 199 244 L 248 244 L 248 269 L 199 269 L 199 244 Z Z" stroke-miterlimit="10"/></g><g transform="translate(-10,-10) scale(1,1)"><g><path fill="none" stroke="none"/><text fill="#000000" stroke="none" font-family="Arial" font-size="13px" font-style="normal" font-weight="bold" text-decoration="none" x="215" y="264.5">util</text></g></g><g transform="translate(-10,-10) scale(1,1)"><rect fill="#C0C0C0" stroke="none" x="286" y="237" width="23.19999999999999" height="15" opacity="0.2"/></g><g transform="translate(-10,-10) scale(1,1)"><rect fill="#C0C0C0" stroke="none" x="286" y="251" width="58" height="25" opacity="0.2"/></g><g transform="translate(-10,-10) scale(1,1)"><rect fill="#ffffff" stroke="none" x="279" y="245" width="58" height="24"/></g><g transform="translate(-10,-10) scale(1,1)"><path fill="none" stroke="#000000" d="M 279 245 L 337 245 L 337 269 L 279 269 L 279 245 Z Z" stroke-miterlimit="10"/></g><g transform="translate(-10,-10) scale(1,1)"><rect fill="#ffffff" stroke="none" x="279" y="230" width="23.19999999999999" height="15"/></g><g transform="translate(-10,-10) scale(1,1)"><path fill="none" stroke="#000000" d="M 279 230 L 302.2 230 L 302.2 245 L 279 245 L 279 230 Z Z" stroke-miterlimit="10"/></g><g transform="translate(-10,-10) scale(1,1)"><rect fill="#ffffff" stroke="none" x="279" y="244" width="58" height="25"/></g><g transform="translate(-10,-10) scale(1,1)"><path fill="none" stroke="#000000" d="M 279 244 L 337 244 L 337 269 L 279 269 L 279 244 Z Z" stroke-miterlimit="10"/></g><g transform="translate(-10,-10) scale(1,1)"><g><path fill="none" stroke="none"/><text fill="#000000" stroke="none" font-family="Arial" font-size="13px" font-style="normal" font-weight="bold" text-decoration="none" x="285.5" y="264.5">channel</text></g></g><g transform="translate(-10,-10) scale(1,1)"><rect fill="#C0C0C0" stroke="none" x="290.5" y="307" width="19.600000000000023" height="15" opacity="0.2"/></g><g transform="translate(-10,-10) scale(1,1)"><rect fill="#C0C0C0" stroke="none" x="290.5" y="321" width="49" height="25" opacity="0.2"/></g><g transform="translate(-10,-10) scale(1,1)"><rect fill="#ffffff" stroke="none" x="283.5" y="315" width="49" height="24"/></g><g transform="translate(-10,-10) scale(1,1)"><path fill="none" stroke="#000000" d="M 283.5 315 L 332.5 315 L 332.5 339 L 283.5 339 L 283.5 315 Z Z" stroke-miterlimit="10"/></g><g transform="translate(-10,-10) scale(1,1)"><rect fill="#ffffff" stroke="none" x="283.5" y="300" width="19.600000000000023" height="15"/></g><g transform="translate(-10,-10) scale(1,1)"><path fill="none" stroke="#000000" d="M 283.5 300 L 303.1 300 L 303.1 315 L 283.5 315 L 283.5 300 Z Z" stroke-miterlimit="10"/></g><g transform="translate(-10,-10) scale(1,1)"><rect fill="#ffffff" stroke="none" x="283.5" y="314" width="49" height="25"/></g><g transform="translate(-10,-10) scale(1,1)"><path fill="none" stroke="#000000" d="M 283.5 314 L 332.5 314 L 332.5 339 L 283.5 339 L 283.5 314 Z Z" stroke-miterlimit="10"/></g><g transform="translate(-10,-10) scale(1,1)"><g><path fill="none" stroke="none"/><text fill="#000000" stroke="none" font-family="Arial" font-size="13px" font-style="normal" font-weight="bold" text-decoration="none" x="288.5" y="334.5">socket</text></g></g><g transform="translate(-10,-10) scale(1,1)"><rect fill="#C0C0C0" stroke="none" x="250.5" y="377" width="19.600000000000023" height="15" opacity="0.2"/></g><g transform="translate(-10,-10) scale(1,1)"><rect fill="#C0C0C0" stroke="none" x="250.5" y="391" width="49" height="25" opacity="0.2"/></g><g transform="translate(-10,-10) scale(1,1)"><rect fill="#ffffff" stroke="none" x="243.5" y="385" width="49" height="24"/></g><g transform="translate(-10,-10) scale(1,1)"><path fill="none" stroke="#000000" d="M 243.5 385 L 292.5 385 L 292.5 409 L 243.5 409 L 243.5 385 Z Z" stroke-miterlimit="10"/></g><g transform="translate(-10,-10) scale(1,1)"><rect fill="#ffffff" stroke="none" x="243.5" y="370" width="19.600000000000023" height="15"/></g><g transform="translate(-10,-10) scale(1,1)"><path fill="none" stroke="#000000" d="M 243.5 370 L 263.1 370 L 263.1 385 L 243.5 385 L 243.5 370 Z Z" stroke-miterlimit="10"/></g><g transform="translate(-10,-10) scale(1,1)"><rect fill="#ffffff" stroke="none" x="243.5" y="384" width="49" height="25"/></g><g transform="translate(-10,-10) scale(1,1)"><path fill="none" stroke="#000000" d="M 243.5 384 L 292.5 384 L 292.5 409 L 243.5 409 L 243.5 384 Z Z" stroke-miterlimit="10"/></g><g transform="translate(-10,-10) scale(1,1)"><g><path fill="none" stroke="none"/><text fill="#000000" stroke="none" font-family="Arial" font-size="13px" font-style="normal" font-weight="bold" text-decoration="none" x="259.5" y="404.5">oio</text></g></g><g transform="translate(-10,-10) scale(1,1)"><rect fill="#C0C0C0" stroke="none" x="330.5" y="377" width="19.600000000000023" height="15" opacity="0.2"/></g><g transform="translate(-10,-10) scale(1,1)"><rect fill="#C0C0C0" stroke="none" x="330.5" y="391" width="49" height="25" opacity="0.2"/></g><g transform="translate(-10,-10) scale(1,1)"><rect fill="#ffffff" stroke="none" x="323.5" y="385" width="49" height="24"/></g><g transform="translate(-10,-10) scale(1,1)"><path fill="none" stroke="#000000" d="M 323.5 385 L 372.5 385 L 372.5 409 L 323.5 409 L 323.5 385 Z Z" stroke-miterlimit="10"/></g><g transform="translate(-10,-10) scale(1,1)"><rect fill="#ffffff" stroke="none" x="323.5" y="370" width="19.600000000000023" height="15"/></g><g transform="translate(-10,-10) scale(1,1)"><path fill="none" stroke="#000000" d="M 323.5 370 L 343.1 370 L 343.1 385 L 323.5 385 L 323.5 370 Z Z" stroke-miterlimit="10"/></g><g transform="translate(-10,-10) scale(1,1)"><rect fill="#ffffff" stroke="none" x="323.5" y="384" width="49" height="25"/></g><g transform="translate(-10,-10) scale(1,1)"><path fill="none" stroke="#000000" d="M 323.5 384 L 372.5 384 L 372.5 409 L 323.5 409 L 323.5 384 Z Z" stroke-miterlimit="10"/></g><g transform="translate(-10,-10) scale(1,1)"><g><path fill="none" stroke="none"/><text fill="#000000" stroke="none" font-family="Arial" font-size="13px" font-style="normal" font-weight="bold" text-decoration="none" x="339.5" y="404.5">nio</text></g></g><g transform="translate(-10,-10) scale(1,1)"><rect fill="#C0C0C0" stroke="none" x="380" y="237" width="22.80000000000001" height="15" opacity="0.2"/></g><g transform="translate(-10,-10) scale(1,1)"><rect fill="#C0C0C0" stroke="none" x="380" y="251" width="57" height="25" opacity="0.2"/></g><g transform="translate(-10,-10) scale(1,1)"><rect fill="#ffffff" stroke="none" x="373" y="245" width="57" height="24"/></g><g transform="translate(-10,-10) scale(1,1)"><path fill="none" stroke="#000000" d="M 373 245 L 430 245 L 430 269 L 373 269 L 373 245 Z Z" stroke-miterlimit="10"/></g><g transform="translate(-10,-10) scale(1,1)"><rect fill="#ffffff" stroke="none" x="373" y="230" width="22.80000000000001" height="15"/></g><g transform="translate(-10,-10) scale(1,1)"><path fill="none" stroke="#000000" d="M 373 230 L 395.8 230 L 395.8 245 L 373 245 L 373 230 Z Z" stroke-miterlimit="10"/></g><g transform="translate(-10,-10) scale(1,1)"><rect fill="#ffffff" stroke="none" x="373" y="244" width="57" height="25"/></g><g transform="translate(-10,-10) scale(1,1)"><path fill="none" stroke="#000000" d="M 373 244 L 430 244 L 430 269 L 373 269 L 373 244 Z Z" stroke-miterlimit="10"/></g><g transform="translate(-10,-10) scale(1,1)"><g><path fill="none" stroke="none"/><text fill="#000000" stroke="none" font-family="Arial" font-size="13px" font-style="normal" font-weight="bold" text-decoration="none" x="381" y="264.5">logging</text></g></g><g transform="translate(-10,-10) scale(1,1)"><rect fill="#C0C0C0" stroke="none" x="468" y="237" width="22.399999999999977" height="15" opacity="0.2"/></g><g transform="translate(-10,-10) scale(1,1)"><rect fill="#C0C0C0" stroke="none" x="468" y="251" width="56" height="25" opacity="0.2"/></g><g transform="translate(-10,-10) scale(1,1)"><rect fill="#ffffff" stroke="none" x="461" y="245" width="56" height="24"/></g><g transform="translate(-10,-10) scale(1,1)"><path fill="none" stroke="#000000" d="M 461 245 L 517 245 L 517 269 L 461 269 L 461 245 Z Z" stroke-miterlimit="10"/></g><g transform="translate(-10,-10) scale(1,1)"><rect fill="#ffffff" stroke="none" x="461" y="230" width="22.399999999999977" height="15"/></g><g transform="translate(-10,-10) scale(1,1)"><path fill="none" stroke="#000000" d="M 461 230 L 483.4 230 L 483.4 245 L 461 245 L 461 230 Z Z" stroke-miterlimit="10"/></g><g transform="translate(-10,-10) scale(1,1)"><rect fill="#ffffff" stroke="none" x="461" y="244" width="56" height="25"/></g><g transform="translate(-10,-10) scale(1,1)"><path fill="none" stroke="#000000" d="M 461 244 L 517 244 L 517 269 L 461 269 L 461 244 Z Z" stroke-miterlimit="10"/></g><g transform="translate(-10,-10) scale(1,1)"><g><path fill="none" stroke="none"/><text fill="#000000" stroke="none" font-family="Arial" font-size="13px" font-style="normal" font-weight="bold" text-decoration="none" x="468" y="264.5">handler</text></g></g><g transform="translate(-10,-10) scale(1,1)"><rect fill="#C0C0C0" stroke="none" x="386.5" y="307" width="19.600000000000023" height="15" opacity="0.2"/></g><g transform="translate(-10,-10) scale(1,1)"><rect fill="#C0C0C0" stroke="none" x="386.5" y="321" width="49" height="25" opacity="0.2"/></g><g transform="translate(-10,-10) scale(1,1)"><rect fill="#ffffff" stroke="none" x="379.5" y="315" width="49" height="24"/></g><g transform="translate(-10,-10) scale(1,1)"><path fill="none" stroke="#000000" d="M 379.5 315 L 428.5 315 L 428.5 339 L 379.5 339 L 379.5 315 Z Z" stroke-miterlimit="10"/></g><g transform="translate(-10,-10) scale(1,1)"><rect fill="#ffffff" stroke="none" x="379.5" y="300" width="19.600000000000023" height="15"/></g><g transform="translate(-10,-10) scale(1,1)"><path fill="none" stroke="#000000" d="M 379.5 300 L 399.1 300 L 399.1 315 L 379.5 315 L 379.5 300 Z Z" stroke-miterlimit="10"/></g><g transform="translate(-10,-10) scale(1,1)"><rect fill="#ffffff" stroke="none" x="379.5" y="314" width="49" height="25"/></g><g transform="translate(-10,-10) scale(1,1)"><path fill="none" stroke="#000000" d="M 379.5 314 L 428.5 314 L 428.5 339 L 379.5 339 L 379.5 314 Z Z" stroke-miterlimit="10"/></g><g transform="translate(-10,-10) scale(1,1)"><g><path fill="none" stroke="none"/><text fill="#000000" stroke="none" font-family="Arial" font-size="13px" font-style="normal" font-weight="bold" text-decoration="none" x="395.5" y="334.5">ssl</text></g></g><g transform="translate(-10,-10) scale(1,1)"><rect fill="#C0C0C0" stroke="none" x="466.5" y="307" width="27.600000000000023" height="15" opacity="0.2"/></g><g transform="translate(-10,-10) scale(1,1)"><rect fill="#C0C0C0" stroke="none" x="466.5" y="321" width="69" height="25" opacity="0.2"/></g><g transform="translate(-10,-10) scale(1,1)"><rect fill="#ffffff" stroke="none" x="459.5" y="315" width="69" height="24"/></g><g transform="translate(-10,-10) scale(1,1)"><path fill="none" stroke="#000000" d="M 459.5 315 L 528.5 315 L 528.5 339 L 459.5 339 L 459.5 315 Z Z" stroke-miterlimit="10"/></g><g transform="translate(-10,-10) scale(1,1)"><rect fill="#ffffff" stroke="none" x="459.5" y="300" width="27.600000000000023" height="15"/></g><g transform="translate(-10,-10) scale(1,1)"><path fill="none" stroke="#000000" d="M 459.5 300 L 487.1 300 L 487.1 315 L 459.5 315 L 459.5 300 Z Z" stroke-miterlimit="10"/></g><g transform="translate(-10,-10) scale(1,1)"><rect fill="#ffffff" stroke="none" x="459.5" y="314" width="69" height="25"/></g><g transform="translate(-10,-10) scale(1,1)"><path fill="none" stroke="#000000" d="M 459.5 314 L 528.5 314 L 528.5 339 L 459.5 339 L 459.5 314 Z Z" stroke-miterlimit="10"/></g><g transform="translate(-10,-10) scale(1,1)"><g><path fill="none" stroke="none"/><text fill="#000000" stroke="none" font-family="Arial" font-size="13px" font-style="normal" font-weight="bold" text-decoration="none" x="466" y="334.5">execution</text></g></g><g transform="translate(-10,-10) scale(1,1)"><rect fill="#C0C0C0" stroke="none" x="566.5" y="307" width="19.600000000000023" height="15" opacity="0.2"/></g><g transform="translate(-10,-10) scale(1,1)"><rect fill="#C0C0C0" stroke="none" x="566.5" y="321" width="49" height="25" opacity="0.2"/></g><g transform="translate(-10,-10) scale(1,1)"><rect fill="#ffffff" stroke="none" x="559.5" y="315" width="49" height="24"/></g><g transform="translate(-10,-10) scale(1,1)"><path fill="none" stroke="#000000" d="M 559.5 315 L 608.5 315 L 608.5 339 L 559.5 339 L 559.5 315 Z Z" stroke-miterlimit="10"/></g><g transform="translate(-10,-10) scale(1,1)"><rect fill="#ffffff" stroke="none" x="559.5" y="300" width="19.600000000000023" height="15"/></g><g transform="translate(-10,-10) scale(1,1)"><path fill="none" stroke="#000000" d="M 559.5 300 L 579.1 300 L 579.1 315 L 559.5 315 L 559.5 300 Z Z" stroke-miterlimit="10"/></g><g transform="translate(-10,-10) scale(1,1)"><rect fill="#ffffff" stroke="none" x="559.5" y="314" width="49" height="25"/></g><g transform="translate(-10,-10) scale(1,1)"><path fill="none" stroke="#000000" d="M 559.5 314 L 608.5 314 L 608.5 339 L 559.5 339 L 559.5 314 Z Z" stroke-miterlimit="10"/></g><g transform="translate(-10,-10) scale(1,1)"><g><path fill="none" stroke="none"/><text fill="#000000" stroke="none" font-family="Arial" font-size="13px" font-style="normal" font-weight="bold" text-decoration="none" x="566.5" y="334.5">codec</text></g></g><g transform="translate(-10,-10) scale(1,1)"><rect fill="#C0C0C0" stroke="none" x="410.5" y="377" width="34" height="15" opacity="0.2"/></g><g transform="translate(-10,-10) scale(1,1)"><rect fill="#C0C0C0" stroke="none" x="410.5" y="391" width="85" height="25" opacity="0.2"/></g><g transform="translate(-10,-10) scale(1,1)"><rect fill="#ffffff" stroke="none" x="403.5" y="385" width="85" height="24"/></g><g transform="translate(-10,-10) scale(1,1)"><path fill="none" stroke="#000000" d="M 403.5 385 L 488.5 385 L 488.5 409 L 403.5 409 L 403.5 385 Z Z" stroke-miterlimit="10"/></g><g transform="translate(-10,-10) scale(1,1)"><rect fill="#ffffff" stroke="none" x="403.5" y="370" width="34" height="15"/></g><g transform="translate(-10,-10) scale(1,1)"><path fill="none" stroke="#000000" d="M 403.5 370 L 437.5 370 L 437.5 385 L 403.5 385 L 403.5 370 Z Z" stroke-miterlimit="10"/></g><g transform="translate(-10,-10) scale(1,1)"><rect fill="#ffffff" stroke="none" x="403.5" y="384" width="85" height="25"/></g><g transform="translate(-10,-10) scale(1,1)"><path fill="none" stroke="#000000" d="M 403.5 384 L 488.5 384 L 488.5 409 L 403.5 409 L 403.5 384 Z Z" stroke-miterlimit="10"/></g><g transform="translate(-10,-10) scale(1,1)"><g><path fill="none" stroke="none"/><text fill="#000000" stroke="none" font-family="Arial" font-size="13px" font-style="normal" font-weight="bold" text-decoration="none" x="411.5" y="404.5">serialization</text></g></g><g transform="translate(-10,-10) scale(1,1)"><rect fill="#C0C0C0" stroke="none" x="526.5" y="377" width="19.600000000000023" height="15" opacity="0.2"/></g><g transform="translate(-10,-10) scale(1,1)"><rect fill="#C0C0C0" stroke="none" x="526.5" y="391" width="49" height="25" opacity="0.2"/></g><g transform="translate(-10,-10) scale(1,1)"><rect fill="#ffffff" stroke="none" x="519.5" y="385" width="49" height="24"/></g><g transform="translate(-10,-10) scale(1,1)"><path fill="none" stroke="#000000" d="M 519.5 385 L 568.5 385 L 568.5 409 L 519.5 409 L 519.5 385 Z Z" stroke-miterlimit="10"/></g><g transform="translate(-10,-10) scale(1,1)"><rect fill="#ffffff" stroke="none" x="519.5" y="370" width="19.600000000000023" height="15"/></g><g transform="translate(-10,-10) scale(1,1)"><path fill="none" stroke="#000000" d="M 519.5 370 L 539.1 370 L 539.1 385 L 519.5 385 L 519.5 370 Z Z" stroke-miterlimit="10"/></g><g transform="translate(-10,-10) scale(1,1)"><rect fill="#ffffff" stroke="none" x="519.5" y="384" width="49" height="25"/></g><g transform="translate(-10,-10) scale(1,1)"><path fill="none" stroke="#000000" d="M 519.5 384 L 568.5 384 L 568.5 409 L 519.5 409 L 519.5 384 Z Z" stroke-miterlimit="10"/></g><g transform="translate(-10,-10) scale(1,1)"><g><path fill="none" stroke="none"/><text fill="#000000" stroke="none" font-family="Arial" font-size="13px" font-style="normal" font-weight="bold" text-decoration="none" x="527.5" y="404.5">frame</text></g></g><g transform="translate(-10,-10) scale(1,1)"><rect fill="#C0C0C0" stroke="none" x="606.5" y="377" width="19.600000000000023" height="15" opacity="0.2"/></g><g transform="translate(-10,-10) scale(1,1)"><rect fill="#C0C0C0" stroke="none" x="606.5" y="391" width="49" height="25" opacity="0.2"/></g><g transform="translate(-10,-10) scale(1,1)"><rect fill="#ffffff" stroke="none" x="599.5" y="385" width="49" height="24"/></g><g transform="translate(-10,-10) scale(1,1)"><path fill="none" stroke="#000000" d="M 599.5 385 L 648.5 385 L 648.5 409 L 599.5 409 L 599.5 385 Z Z" stroke-miterlimit="10"/></g><g transform="translate(-10,-10) scale(1,1)"><rect fill="#ffffff" stroke="none" x="599.5" y="370" width="19.600000000000023" height="15"/></g><g transform="translate(-10,-10) scale(1,1)"><path fill="none" stroke="#000000" d="M 599.5 370 L 619.1 370 L 619.1 385 L 599.5 385 L 599.5 370 Z Z" stroke-miterlimit="10"/></g><g transform="translate(-10,-10) scale(1,1)"><rect fill="#ffffff" stroke="none" x="599.5" y="384" width="49" height="25"/></g><g transform="translate(-10,-10) scale(1,1)"><path fill="none" stroke="#000000" d="M 599.5 384 L 648.5 384 L 648.5 409 L 599.5 409 L 599.5 384 Z Z" stroke-miterlimit="10"/></g><g transform="translate(-10,-10) scale(1,1)"><g><path fill="none" stroke="none"/><text fill="#000000" stroke="none" font-family="Arial" font-size="13px" font-style="normal" font-weight="bold" text-decoration="none" x="608" y="404.5">string</text></g></g><g transform="translate(-10,-10) scale(1,1)"><rect fill="#C0C0C0" stroke="none" x="686.5" y="377" width="19.600000000000023" height="15" opacity="0.2"/></g><g transform="translate(-10,-10) scale(1,1)"><rect fill="#C0C0C0" stroke="none" x="686.5" y="391" width="49" height="25" opacity="0.2"/></g><g transform="translate(-10,-10) scale(1,1)"><rect fill="#ffffff" stroke="none" x="679.5" y="385" width="49" height="24"/></g><g transform="translate(-10,-10) scale(1,1)"><path fill="none" stroke="#000000" d="M 679.5 385 L 728.5 385 L 728.5 409 L 679.5 409 L 679.5 385 Z Z" stroke-miterlimit="10"/></g><g transform="translate(-10,-10) scale(1,1)"><rect fill="#ffffff" stroke="none" x="679.5" y="370" width="19.600000000000023" height="15"/></g><g transform="translate(-10,-10) scale(1,1)"><path fill="none" stroke="#000000" d="M 679.5 370 L 699.1 370 L 699.1 385 L 679.5 385 L 679.5 370 Z Z" stroke-miterlimit="10"/></g><g transform="translate(-10,-10) scale(1,1)"><rect fill="#ffffff" stroke="none" x="679.5" y="384" width="49" height="25"/></g><g transform="translate(-10,-10) scale(1,1)"><path fill="none" stroke="#000000" d="M 679.5 384 L 728.5 384 L 728.5 409 L 679.5 409 L 679.5 384 Z Z" stroke-miterlimit="10"/></g><g transform="translate(-10,-10) scale(1,1)"><g><path fill="none" stroke="none"/><text fill="#000000" stroke="none" font-family="Arial" font-size="13px" font-style="normal" font-weight="bold" text-decoration="none" x="686.5" y="404.5">replay</text></g></g><g transform="translate(-10,-10) scale(1,1)"><rect fill="#C0C0C0" stroke="none" x="869.25" y="237" width="24.399999999999977" height="15" opacity="0.2"/></g><g transform="translate(-10,-10) scale(1,1)"><rect fill="#C0C0C0" stroke="none" x="869.25" y="251" width="61" height="25" opacity="0.2"/></g><g transform="translate(-10,-10) scale(1,1)"><rect fill="#ffffff" stroke="none" x="862.25" y="245" width="61" height="24"/></g><g transform="translate(-10,-10) scale(1,1)"><path fill="none" stroke="#000000" d="M 862.25 245 L 923.25 245 L 923.25 269 L 862.25 269 L 862.25 245 Z Z" stroke-miterlimit="10"/></g><g transform="translate(-10,-10) scale(1,1)"><rect fill="#ffffff" stroke="none" x="862.25" y="230" width="24.399999999999977" height="15"/></g><g transform="translate(-10,-10) scale(1,1)"><path fill="none" stroke="#000000" d="M 862.25 230 L 886.65 230 L 886.65 245 L 862.25 245 L 862.25 230 Z Z" stroke-miterlimit="10"/></g><g transform="translate(-10,-10) scale(1,1)"><rect fill="#ffffff" stroke="none" x="862.25" y="244" width="61" height="25"/></g><g transform="translate(-10,-10) scale(1,1)"><path fill="none" stroke="#000000" d="M 862.25 244 L 923.25 244 L 923.25 269 L 862.25 269 L 862.25 244 Z Z" stroke-miterlimit="10"/></g><g transform="translate(-10,-10) scale(1,1)"><g><path fill="none" stroke="none"/><text fill="#000000" stroke="none" font-family="Arial" font-size="13px" font-style="normal" font-weight="bold" text-decoration="none" x="868.25" y="264.5">example</text></g></g><g transform="translate(-10,-10) scale(1,1)"><rect fill="#C0C0C0" stroke="none" x="646.5" y="307" width="19.600000000000023" height="15" opacity="0.2"/></g><g transform="translate(-10,-10) scale(1,1)"><rect fill="#C0C0C0" stroke="none" x="646.5" y="321" width="49" height="25" opacity="0.2"/></g><g transform="translate(-10,-10) scale(1,1)"><rect fill="#ffffff" stroke="none" x="639.5" y="315" width="49" height="24"/></g><g transform="translate(-10,-10) scale(1,1)"><path fill="none" stroke="#000000" d="M 639.5 315 L 688.5 315 L 688.5 339 L 639.5 339 L 639.5 315 Z Z" stroke-miterlimit="10"/></g><g transform="translate(-10,-10) scale(1,1)"><rect fill="#ffffff" stroke="none" x="639.5" y="300" width="19.600000000000023" height="15"/></g><g transform="translate(-10,-10) scale(1,1)"><path fill="none" stroke="#000000" d="M 639.5 300 L 659.1 300 L 659.1 315 L 639.5 315 L 639.5 300 Z Z" stroke-miterlimit="10"/></g><g transform="translate(-10,-10) scale(1,1)"><rect fill="#ffffff" stroke="none" x="639.5" y="314" width="49" height="25"/></g><g transform="translate(-10,-10) scale(1,1)"><path fill="none" stroke="#000000" d="M 639.5 314 L 688.5 314 L 688.5 339 L 639.5 339 L 639.5 314 Z Z" stroke-miterlimit="10"/></g><g transform="translate(-10,-10) scale(1,1)"><g><path fill="none" stroke="none"/><text fill="#000000" stroke="none" font-family="Arial" font-size="13px" font-style="normal" font-weight="bold" text-decoration="none" x="650" y="334.5">echo</text></g></g><g transform="translate(-10,-10) scale(1,1)"><rect fill="#C0C0C0" stroke="none" x="726.5" y="307" width="22" height="15" opacity="0.2"/></g><g transform="translate(-10,-10) scale(1,1)"><rect fill="#C0C0C0" stroke="none" x="726.5" y="321" width="55" height="25" opacity="0.2"/></g><g transform="translate(-10,-10) scale(1,1)"><rect fill="#ffffff" stroke="none" x="719.5" y="315" width="55" height="24"/></g><g transform="translate(-10,-10) scale(1,1)"><path fill="none" stroke="#000000" d="M 719.5 315 L 774.5 315 L 774.5 339 L 719.5 339 L 719.5 315 Z Z" stroke-miterlimit="10"/></g><g transform="translate(-10,-10) scale(1,1)"><rect fill="#ffffff" stroke="none" x="719.5" y="300" width="22" height="15"/></g><g transform="translate(-10,-10) scale(1,1)"><path fill="none" stroke="#000000" d="M 719.5 300 L 741.5 300 L 741.5 315 L 719.5 315 L 719.5 300 Z Z" stroke-miterlimit="10"/></g><g transform="translate(-10,-10) scale(1,1)"><rect fill="#ffffff" stroke="none" x="719.5" y="314" width="55" height="25"/></g><g transform="translate(-10,-10) scale(1,1)"><path fill="none" stroke="#000000" d="M 719.5 314 L 774.5 314 L 774.5 339 L 719.5 339 L 719.5 314 Z Z" stroke-miterlimit="10"/></g><g transform="translate(-10,-10) scale(1,1)"><g><path fill="none" stroke="none"/><text fill="#000000" stroke="none" font-family="Arial" font-size="13px" font-style="normal" font-weight="bold" text-decoration="none" x="726" y="334.5">discard</text></g></g><g transform="translate(-10,-10) scale(1,1)"><rect fill="#C0C0C0" stroke="none" x="812.5" y="307" width="30.399999999999977" height="15" opacity="0.2"/></g><g transform="translate(-10,-10) scale(1,1)"><rect fill="#C0C0C0" stroke="none" x="812.5" y="321" width="76" height="25" opacity="0.2"/></g><g transform="translate(-10,-10) scale(1,1)"><rect fill="#ffffff" stroke="none" x="805.5" y="315" width="76" height="24"/></g><g transform="translate(-10,-10) scale(1,1)"><path fill="none" stroke="#000000" d="M 805.5 315 L 881.5 315 L 881.5 339 L 805.5 339 L 805.5 315 Z Z" stroke-miterlimit="10"/></g><g transform="translate(-10,-10) scale(1,1)"><rect fill="#ffffff" stroke="none" x="805.5" y="300" width="30.399999999999977" height="15"/></g><g transform="translate(-10,-10) scale(1,1)"><path fill="none" stroke="#000000" d="M 805.5 300 L 835.9 300 L 835.9 315 L 805.5 315 L 805.5 300 Z Z" stroke-miterlimit="10"/></g><g transform="translate(-10,-10) scale(1,1)"><rect fill="#ffffff" stroke="none" x="805.5" y="314" width="76" height="25"/></g><g transform="translate(-10,-10) scale(1,1)"><path fill="none" stroke="#000000" d="M 805.5 314 L 881.5 314 L 881.5 339 L 805.5 339 L 805.5 314 Z Z" stroke-miterlimit="10"/></g><g transform="translate(-10,-10) scale(1,1)"><g><path fill="none" stroke="none"/><text fill="#000000" stroke="none" font-family="Arial" font-size="13px" font-style="normal" font-weight="bold" text-decoration="none" x="811.5" y="334.5">securechat</text></g></g><g transform="translate(-10,-10) scale(1,1)"><rect fill="#C0C0C0" stroke="none" x="919.5" y="307" width="23.600000000000023" height="15" opacity="0.2"/></g><g transform="translate(-10,-10) scale(1,1)"><rect fill="#C0C0C0" stroke="none" x="919.5" y="321" width="59" height="25" opacity="0.2"/></g><g transform="translate(-10,-10) scale(1,1)"><rect fill="#ffffff" stroke="none" x="912.5" y="315" width="59" height="24"/></g><g transform="translate(-10,-10) scale(1,1)"><path fill="none" stroke="#000000" d="M 912.5 315 L 971.5 315 L 971.5 339 L 912.5 339 L 912.5 315 Z Z" stroke-miterlimit="10"/></g><g transform="translate(-10,-10) scale(1,1)"><rect fill="#ffffff" stroke="none" x="912.5" y="300" width="23.600000000000023" height="15"/></g><g transform="translate(-10,-10) scale(1,1)"><path fill="none" stroke="#000000" d="M 912.5 300 L 936.1 300 L 936.1 315 L 912.5 315 L 912.5 300 Z Z" stroke-miterlimit="10"/></g><g transform="translate(-10,-10) scale(1,1)"><rect fill="#ffffff" stroke="none" x="912.5" y="314" width="59" height="25"/></g><g transform="translate(-10,-10) scale(1,1)"><path fill="none" stroke="#000000" d="M 912.5 314 L 971.5 314 L 971.5 339 L 912.5 339 L 912.5 314 Z Z" stroke-miterlimit="10"/></g><g transform="translate(-10,-10) scale(1,1)"><g><path fill="none" stroke="none"/><text fill="#000000" stroke="none" font-family="Arial" font-size="13px" font-style="normal" font-weight="bold" text-decoration="none" x="919" y="334.5">factorial</text></g></g><g transform="translate(-10,-10) scale(1,1)"><rect fill="#C0C0C0" stroke="none" x="1009.5" y="307" width="30.799999999999955" height="15" opacity="0.2"/></g><g transform="translate(-10,-10) scale(1,1)"><rect fill="#C0C0C0" stroke="none" x="1009.5" y="321" width="77" height="25" opacity="0.2"/></g><g transform="translate(-10,-10) scale(1,1)"><rect fill="#ffffff" stroke="none" x="1002.5" y="315" width="77" height="24"/></g><g transform="translate(-10,-10) scale(1,1)"><path fill="none" stroke="#000000" d="M 1002.5 315 L 1079.5 315 L 1079.5 339 L 1002.5 339 L 1002.5 315 Z Z" stroke-miterlimit="10"/></g><g transform="translate(-10,-10) scale(1,1)"><rect fill="#ffffff" stroke="none" x="1002.5" y="300" width="30.799999999999955" height="15"/></g><g transform="translate(-10,-10) scale(1,1)"><path fill="none" stroke="#000000" d="M 1002.5 300 L 1033.3 300 L 1033.3 315 L 1002.5 315 L 1002.5 300 Z Z" stroke-miterlimit="10"/></g><g transform="translate(-10,-10) scale(1,1)"><rect fill="#ffffff" stroke="none" x="1002.5" y="314" width="77" height="25"/></g><g transform="translate(-10,-10) scale(1,1)"><path fill="none" stroke="#000000" d="M 1002.5 314 L 1079.5 314 L 1079.5 339 L 1002.5 339 L 1002.5 314 Z Z" stroke-miterlimit="10"/></g><g transform="translate(-10,-10) scale(1,1)"><g><path fill="none" stroke="none"/><text fill="#000000" stroke="none" font-family="Arial" font-size="13px" font-style="normal" font-weight="bold" text-decoration="none" x="1009.5" y="334.5">objectecho</text></g></g><g transform="translate(-10,-10) scale(1,1)"><rect fill="#C0C0C0" stroke="none" x="1117.5" y="307" width="19.59999999999991" height="15" opacity="0.2"/></g><g transform="translate(-10,-10) scale(1,1)"><rect fill="#C0C0C0" stroke="none" x="1117.5" y="321" width="49" height="25" opacity="0.2"/></g><g transform="translate(-10,-10) scale(1,1)"><rect fill="#ffffff" stroke="none" x="1110.5" y="315" width="49" height="24"/></g><g transform="translate(-10,-10) scale(1,1)"><path fill="none" stroke="#000000" d="M 1110.5 315 L 1159.5 315 L 1159.5 339 L 1110.5 339 L 1110.5 315 Z Z" stroke-miterlimit="10"/></g><g transform="translate(-10,-10) scale(1,1)"><rect fill="#ffffff" stroke="none" x="1110.5" y="300" width="19.59999999999991" height="15"/></g><g transform="translate(-10,-10) scale(1,1)"><path fill="none" stroke="#000000" d="M 1110.5 300 L 1130.1 300 L 1130.1 315 L 1110.5 315 L 1110.5 300 Z Z" stroke-miterlimit="10"/></g><g transform="translate(-10,-10) scale(1,1)"><rect fill="#ffffff" stroke="none" x="1110.5" y="314" width="49" height="25"/></g><g transform="translate(-10,-10) scale(1,1)"><path fill="none" stroke="#000000" d="M 1110.5 314 L 1159.5 314 L 1159.5 339 L 1110.5 339 L 1110.5 314 Z Z" stroke-miterlimit="10"/></g><g transform="translate(-10,-10) scale(1,1)"><g><path fill="none" stroke="none"/><text fill="#000000" stroke="none" font-family="Arial" font-size="13px" font-style="normal" font-weight="bold" text-decoration="none" x="1119" y="334.5">telnet</text></g></g><g transform="translate(-10,-10) scale(1,1)"><path fill="none" stroke="#000000" d="M 309 89 Q 309 75 309 60" stroke-miterlimit="10"/></g><g transform="translate(-10,-10) scale(1,1)"><path fill="#FFFFFF" stroke="none" d="M 302 67 C 302 63.1340064 305.1340064 60 309 60 C 312.8659936 60 316 63.1340064 316 67 C 316 70.8659936 312.8659936 74 309 74 C 305.1340064 74 302 70.8659936 302 67 Z"/></g><g transform="translate(-10,-10) scale(1,1)"><path fill="none" stroke="#000000" d="M 302 67 C 302 63.1340064 305.1340064 60 309 60 C 312.8659936 60 316 63.1340064 316 67 C 316 70.8659936 312.8659936 74 309 74 C 305.1340064 74 302 70.8659936 302 67 Z" stroke-miterlimit="10"/></g><g transform="translate(-10,-10) scale(1,1)"><path fill="none" stroke="#000000" d="M 309 74 L 309 60" stroke-miterlimit="10"/></g><g transform="translate(-10,-10) scale(1,1)"><path fill="none" stroke="#000000" d="M 316 67 L 302 67" stroke-miterlimit="10"/></g><g transform="translate(-10,-10) scale(1,1)"><path fill="none" stroke="#000000" d="M 309 159 Q 309 145 309 130" stroke-miterlimit="10"/></g><g transform="translate(-10,-10) scale(1,1)"><path fill="#FFFFFF" stroke="none" d="M 302 137 C 302 133.1340064 305.1340064 130 309 130 C 312.8659936 130 316 133.1340064 316 137 C 316 140.8659936 312.8659936 144 309 144 C 305.1340064 144 302 140.8659936 302 137 Z"/></g><g transform="translate(-10,-10) scale(1,1)"><path fill="none" stroke="#000000" d="M 302 137 C 302 133.1340064 305.1340064 130 309 130 C 312.8659936 130 316 133.1340064 316 137 C 316 140.8659936 312.8659936 144 309 144 C 305.1340064 144 302 140.8659936 302 137 Z" stroke-miterlimit="10"/></g><g transform="translate(-10,-10) scale(1,1)"><path fill="none" stroke="#000000" d="M 309 144 L 309 130" stroke-miterlimit="10"/></g><g transform="translate(-10,-10) scale(1,1)"><path fill="none" stroke="#000000" d="M 316 137 L 302 137" stroke-miterlimit="10"/></g><g transform="translate(-10,-10) scale(1,1)"><path fill="none" stroke="#000000" d="M 45 229 Q 45 215 283 182" stroke-miterlimit="10"/></g><g transform="translate(-10,-10) scale(1,1)"><path fill="#FFFFFF" stroke="none" d="M 269.0663337317183 182.96139070106426 C 269.0663337317183 179.09539710106426 272.2003401317183 175.96139070106426 276.0663337317183 175.96139070106426 C 279.93232733171834 175.96139070106426 283.0663337317183 179.09539710106426 283.0663337317183 182.96139070106426 C 283.0663337317183 186.82738430106426 279.93232733171834 189.96139070106426 276.0663337317183 189.96139070106426 C 272.2003401317183 189.96139070106426 269.0663337317183 186.82738430106426 269.0663337317183 182.96139070106426 Z"/></g><g transform="translate(-10,-10) scale(1,1)"><path fill="none" stroke="#000000" d="M 269.0663337317183 182.96139070106426 C 269.0663337317183 179.09539710106426 272.2003401317183 175.96139070106426 276.0663337317183 175.96139070106426 C 279.93232733171834 175.96139070106426 283.0663337317183 179.09539710106426 283.0663337317183 182.96139070106426 C 283.0663337317183 186.82738430106426 279.93232733171834 189.96139070106426 276.0663337317183 189.96139070106426 C 272.2003401317183 189.96139070106426 269.0663337317183 186.82738430106426 269.0663337317183 182.96139070106426 Z" stroke-miterlimit="10"/></g><g transform="translate(-10,-10) scale(1,1)"><path fill="none" stroke="#000000" d="M 269.13266746343663 183.92278140212855 L 283 182" stroke-miterlimit="10"/></g><g transform="translate(-10,-10) scale(1,1)"><path fill="none" stroke="#000000" d="M 277.0277244327826 189.89505696934594 L 275.10494303065406 176.02772443278258" stroke-miterlimit="10"/></g><g transform="translate(-10,-10) scale(1,1)"><path fill="none" stroke="#000000" d="M 135 229 Q 135 215 283 184" stroke-miterlimit="10"/></g><g transform="translate(-10,-10) scale(1,1)"><path fill="#FFFFFF" stroke="none" d="M 269.1486815735172 185.43507345419573 C 269.1486815735172 181.56907985419573 272.28268797351717 178.43507345419573 276.1486815735172 178.43507345419573 C 280.0146751735172 178.43507345419573 283.1486815735172 181.56907985419573 283.1486815735172 185.43507345419573 C 283.1486815735172 189.30106705419573 280.0146751735172 192.43507345419573 276.1486815735172 192.43507345419573 C 272.28268797351717 192.43507345419573 269.1486815735172 189.30106705419573 269.1486815735172 185.43507345419573 Z"/></g><g transform="translate(-10,-10) scale(1,1)"><path fill="none" stroke="#000000" d="M 269.1486815735172 185.43507345419573 C 269.1486815735172 181.56907985419573 272.28268797351717 178.43507345419573 276.1486815735172 178.43507345419573 C 280.0146751735172 178.43507345419573 283.1486815735172 181.56907985419573 283.1486815735172 185.43507345419573 C 283.1486815735172 189.30106705419573 280.0146751735172 192.43507345419573 276.1486815735172 192.43507345419573 C 272.28268797351717 192.43507345419573 269.1486815735172 189.30106705419573 269.1486815735172 185.43507345419573 Z" stroke-miterlimit="10"/></g><g transform="translate(-10,-10) scale(1,1)"><path fill="none" stroke="#000000" d="M 269.2973631470344 186.87014690839143 L 283 184" stroke-miterlimit="10"/></g><g transform="translate(-10,-10) scale(1,1)"><path fill="none" stroke="#000000" d="M 277.5837550277129 192.28639188067854 L 274.71360811932146 178.58375502771293" stroke-miterlimit="10"/></g><g transform="translate(-10,-10) scale(1,1)"><path fill="none" stroke="#000000" d="M 224 229 Q 224 215 283 190" stroke-miterlimit="10"/></g><g transform="translate(-10,-10) scale(1,1)"><path fill="#FFFFFF" stroke="none" d="M 269.55473795527803 192.731043239289 C 269.55473795527803 188.865049639289 272.688744355278 185.731043239289 276.55473795527803 185.731043239289 C 280.42073155527805 185.731043239289 283.55473795527803 188.865049639289 283.55473795527803 192.731043239289 C 283.55473795527803 196.597036839289 280.42073155527805 199.731043239289 276.55473795527803 199.731043239289 C 272.688744355278 199.731043239289 269.55473795527803 196.597036839289 269.55473795527803 192.731043239289 Z"/></g><g transform="translate(-10,-10) scale(1,1)"><path fill="none" stroke="#000000" d="M 269.55473795527803 192.731043239289 C 269.55473795527803 188.865049639289 272.688744355278 185.731043239289 276.55473795527803 185.731043239289 C 280.42073155527805 185.731043239289 283.55473795527803 188.865049639289 283.55473795527803 192.731043239289 C 283.55473795527803 196.597036839289 280.42073155527805 199.731043239289 276.55473795527803 199.731043239289 C 272.688744355278 199.731043239289 269.55473795527803 196.597036839289 269.55473795527803 192.731043239289 Z" stroke-miterlimit="10"/></g><g transform="translate(-10,-10) scale(1,1)"><path fill="none" stroke="#000000" d="M 270.109475910556 195.46208647857796 L 283 190" stroke-miterlimit="10"/></g><g transform="translate(-10,-10) scale(1,1)"><path fill="none" stroke="#000000" d="M 279.285781194567 199.176305284011 L 273.82369471598906 186.285781194567" stroke-miterlimit="10"/></g><g transform="translate(-10,-10) scale(1,1)"><path fill="none" stroke="#000000" d="M 309 229 Q 309 215 309 200" stroke-miterlimit="10"/></g><g transform="translate(-10,-10) scale(1,1)"><path fill="#FFFFFF" stroke="none" d="M 302 207 C 302 203.1340064 305.1340064 200 309 200 C 312.8659936 200 316 203.1340064 316 207 C 316 210.8659936 312.8659936 214 309 214 C 305.1340064 214 302 210.8659936 302 207 Z"/></g><g transform="translate(-10,-10) scale(1,1)"><path fill="none" stroke="#000000" d="M 302 207 C 302 203.1340064 305.1340064 200 309 200 C 312.8659936 200 316 203.1340064 316 207 C 316 210.8659936 312.8659936 214 309 214 C 305.1340064 214 302 210.8659936 302 207 Z" stroke-miterlimit="10"/></g><g transform="translate(-10,-10) scale(1,1)"><path fill="none" stroke="#000000" d="M 309 214 L 309 200" stroke-miterlimit="10"/></g><g transform="translate(-10,-10) scale(1,1)"><path fill="none" stroke="#000000" d="M 316 207 L 302 207" stroke-miterlimit="10"/></g><g transform="translate(-10,-10) scale(1,1)"><path fill="none" stroke="#000000" d="M 309 299 Q 309 285 309 270" stroke-miterlimit="10"/></g><g transform="translate(-10,-10) scale(1,1)"><path fill="#FFFFFF" stroke="none" d="M 302 277 C 302 273.1340064 305.1340064 270 309 270 C 312.8659936 270 316 273.1340064 316 277 C 316 280.8659936 312.8659936 284 309 284 C 305.1340064 284 302 280.8659936 302 277 Z"/></g><g transform="translate(-10,-10) scale(1,1)"><path fill="none" stroke="#000000" d="M 302 277 C 302 273.1340064 305.1340064 270 309 270 C 312.8659936 270 316 273.1340064 316 277 C 316 280.8659936 312.8659936 284 309 284 C 305.1340064 284 302 280.8659936 302 277 Z" stroke-miterlimit="10"/></g><g transform="translate(-10,-10) scale(1,1)"><path fill="none" stroke="#000000" d="M 309 284 L 309 270" stroke-miterlimit="10"/></g><g transform="translate(-10,-10) scale(1,1)"><path fill="none" stroke="#000000" d="M 316 277 L 302 277" stroke-miterlimit="10"/></g><g transform="translate(-10,-10) scale(1,1)"><path fill="none" stroke="#000000" d="M 269 369 Q 269 355 285 340" stroke-miterlimit="10"/></g><g transform="translate(-10,-10) scale(1,1)"><path fill="#FFFFFF" stroke="none" d="M 272.8932395710194 344.7875879021693 C 272.8932395710194 340.9215943021693 276.0272459710194 337.7875879021693 279.8932395710194 337.7875879021693 C 283.75923317101945 337.7875879021693 286.8932395710194 340.9215943021693 286.8932395710194 344.7875879021693 C 286.8932395710194 348.65358150216935 283.75923317101945 351.7875879021693 279.8932395710194 351.7875879021693 C 276.0272459710194 351.7875879021693 272.8932395710194 348.65358150216935 272.8932395710194 344.7875879021693 Z"/></g><g transform="translate(-10,-10) scale(1,1)"><path fill="none" stroke="#000000" d="M 272.8932395710194 344.7875879021693 C 272.8932395710194 340.9215943021693 276.0272459710194 337.7875879021693 279.8932395710194 337.7875879021693 C 283.75923317101945 337.7875879021693 286.8932395710194 340.9215943021693 286.8932395710194 344.7875879021693 C 286.8932395710194 348.65358150216935 283.75923317101945 351.7875879021693 279.8932395710194 351.7875879021693 C 276.0272459710194 351.7875879021693 272.8932395710194 348.65358150216935 272.8932395710194 344.7875879021693 Z" stroke-miterlimit="10"/></g><g transform="translate(-10,-10) scale(1,1)"><path fill="none" stroke="#000000" d="M 274.7864791420388 349.57517580433864 L 285 340" stroke-miterlimit="10"/></g><g transform="translate(-10,-10) scale(1,1)"><path fill="none" stroke="#000000" d="M 284.68082747318874 349.8943483311499 L 275.1056516688501 339.68082747318874" stroke-miterlimit="10"/></g><g transform="translate(-10,-10) scale(1,1)"><path fill="none" stroke="#000000" d="M 349 369 Q 349 355 332 340" stroke-miterlimit="10"/></g><g transform="translate(-10,-10) scale(1,1)"><path fill="#FFFFFF" stroke="none" d="M 330.24886498755563 344.6313514596079 C 330.24886498755563 340.7653578596079 333.3828713875556 337.6313514596079 337.24886498755563 337.6313514596079 C 341.11485858755566 337.6313514596079 344.24886498755563 340.7653578596079 344.24886498755563 344.6313514596079 C 344.24886498755563 348.49734505960794 341.11485858755566 351.6313514596079 337.24886498755563 351.6313514596079 C 333.3828713875556 351.6313514596079 330.24886498755563 348.49734505960794 330.24886498755563 344.6313514596079 Z"/></g><g transform="translate(-10,-10) scale(1,1)"><path fill="none" stroke="#000000" d="M 330.24886498755563 344.6313514596079 C 330.24886498755563 340.7653578596079 333.3828713875556 337.6313514596079 337.24886498755563 337.6313514596079 C 341.11485858755566 337.6313514596079 344.24886498755563 340.7653578596079 344.24886498755563 344.6313514596079 C 344.24886498755563 348.49734505960794 341.11485858755566 351.6313514596079 337.24886498755563 351.6313514596079 C 333.3828713875556 351.6313514596079 330.24886498755563 348.49734505960794 330.24886498755563 344.6313514596079 Z" stroke-miterlimit="10"/></g><g transform="translate(-10,-10) scale(1,1)"><path fill="none" stroke="#000000" d="M 342.49772997511127 349.2627029192158 L 332 340" stroke-miterlimit="10"/></g><g transform="translate(-10,-10) scale(1,1)"><path fill="none" stroke="#000000" d="M 341.88021644716355 339.3824864720523 L 332.6175135279477 349.88021644716355" stroke-miterlimit="10"/></g><g transform="translate(-10,-10) scale(1,1)"><path fill="none" stroke="#000000" d="M 402 229 Q 402 215 334 189" stroke-miterlimit="10"/></g><g transform="translate(-10,-10) scale(1,1)"><path fill="#FFFFFF" stroke="none" d="M 333.5383628439576 191.49996226386614 C 333.5383628439576 187.63396866386614 336.6723692439576 184.49996226386614 340.5383628439576 184.49996226386614 C 344.4043564439576 184.49996226386614 347.5383628439576 187.63396866386614 347.5383628439576 191.49996226386614 C 347.5383628439576 195.36595586386613 344.4043564439576 198.49996226386614 340.5383628439576 198.49996226386614 C 336.6723692439576 198.49996226386614 333.5383628439576 195.36595586386613 333.5383628439576 191.49996226386614 Z"/></g><g transform="translate(-10,-10) scale(1,1)"><path fill="none" stroke="#000000" d="M 333.5383628439576 191.49996226386614 C 333.5383628439576 187.63396866386614 336.6723692439576 184.49996226386614 340.5383628439576 184.49996226386614 C 344.4043564439576 184.49996226386614 347.5383628439576 187.63396866386614 347.5383628439576 191.49996226386614 C 347.5383628439576 195.36595586386613 344.4043564439576 198.49996226386614 340.5383628439576 198.49996226386614 C 336.6723692439576 198.49996226386614 333.5383628439576 195.36595586386613 333.5383628439576 191.49996226386614 Z" stroke-miterlimit="10"/></g><g transform="translate(-10,-10) scale(1,1)"><path fill="none" stroke="#000000" d="M 347.0767256879152 193.99992452773228 L 334 189" stroke-miterlimit="10"/></g><g transform="translate(-10,-10) scale(1,1)"><path fill="none" stroke="#000000" d="M 343.03832510782377 184.96159941990854 L 338.03840058009143 198.03832510782374" stroke-miterlimit="10"/></g><g transform="translate(-10,-10) scale(1,1)"><path fill="none" stroke="#000000" d="M 490 229 Q 490 215 334 184" stroke-miterlimit="10"/></g><g transform="translate(-10,-10) scale(1,1)"><path fill="#FFFFFF" stroke="none" d="M 333.8657522514822 185.36434820382019 C 333.8657522514822 181.4983546038202 336.9997586514822 178.36434820382019 340.8657522514822 178.36434820382019 C 344.73174585148223 178.36434820382019 347.8657522514822 181.4983546038202 347.8657522514822 185.36434820382019 C 347.8657522514822 189.23034180382018 344.73174585148223 192.36434820382019 340.8657522514822 192.36434820382019 C 336.9997586514822 192.36434820382019 333.8657522514822 189.23034180382018 333.8657522514822 185.36434820382019 Z"/></g><g transform="translate(-10,-10) scale(1,1)"><path fill="none" stroke="#000000" d="M 333.8657522514822 185.36434820382019 C 333.8657522514822 181.4983546038202 336.9997586514822 178.36434820382019 340.8657522514822 178.36434820382019 C 344.73174585148223 178.36434820382019 347.8657522514822 181.4983546038202 347.8657522514822 185.36434820382019 C 347.8657522514822 189.23034180382018 344.73174585148223 192.36434820382019 340.8657522514822 192.36434820382019 C 336.9997586514822 192.36434820382019 333.8657522514822 189.23034180382018 333.8657522514822 185.36434820382019 Z" stroke-miterlimit="10"/></g><g transform="translate(-10,-10) scale(1,1)"><path fill="none" stroke="#000000" d="M 347.73150450296436 186.72869640764034 L 334 184" stroke-miterlimit="10"/></g><g transform="translate(-10,-10) scale(1,1)"><path fill="none" stroke="#000000" d="M 342.23010045530236 178.498595952338 L 339.50140404766205 192.23010045530236" stroke-miterlimit="10"/></g><g transform="translate(-10,-10) scale(1,1)"><path fill="none" stroke="#000000" d="M 405 299 Q 405 285 460 261" stroke-miterlimit="10"/></g><g transform="translate(-10,-10) scale(1,1)"><path fill="#FFFFFF" stroke="none" d="M 446.58422435141256 263.7996111921109 C 446.58422435141256 259.93361759211086 449.71823075141253 256.7996111921109 453.58422435141256 256.7996111921109 C 457.4502179514126 256.7996111921109 460.58422435141256 259.93361759211086 460.58422435141256 263.7996111921109 C 460.58422435141256 267.6656047921109 457.4502179514126 270.7996111921109 453.58422435141256 270.7996111921109 C 449.71823075141253 270.7996111921109 446.58422435141256 267.6656047921109 446.58422435141256 263.7996111921109 Z"/></g><g transform="translate(-10,-10) scale(1,1)"><path fill="none" stroke="#000000" d="M 446.58422435141256 263.7996111921109 C 446.58422435141256 259.93361759211086 449.71823075141253 256.7996111921109 453.58422435141256 256.7996111921109 C 457.4502179514126 256.7996111921109 460.58422435141256 259.93361759211086 460.58422435141256 263.7996111921109 C 460.58422435141256 267.6656047921109 457.4502179514126 270.7996111921109 453.58422435141256 270.7996111921109 C 449.71823075141253 270.7996111921109 446.58422435141256 267.6656047921109 446.58422435141256 263.7996111921109 Z" stroke-miterlimit="10"/></g><g transform="translate(-10,-10) scale(1,1)"><path fill="none" stroke="#000000" d="M 447.1684487028251 266.5992223842218 L 460 261" stroke-miterlimit="10"/></g><g transform="translate(-10,-10) scale(1,1)"><path fill="none" stroke="#000000" d="M 456.38383554352345 270.21538684069833 L 450.78461315930167 257.38383554352345" stroke-miterlimit="10"/></g><g transform="translate(-10,-10) scale(1,1)"><path fill="none" stroke="#000000" d="M 495 299 Q 495 285 493 270" stroke-miterlimit="10"/></g><g transform="translate(-10,-10) scale(1,1)"><path fill="#FFFFFF" stroke="none" d="M 486.9251460406371 276.93859530477846 C 486.9251460406371 273.07260170477844 490.0591524406371 269.93859530477846 493.9251460406371 269.93859530477846 C 497.79113964063714 269.93859530477846 500.9251460406371 273.07260170477844 500.9251460406371 276.93859530477846 C 500.9251460406371 280.8045889047785 497.79113964063714 283.93859530477846 493.9251460406371 283.93859530477846 C 490.0591524406371 283.93859530477846 486.9251460406371 280.8045889047785 486.9251460406371 276.93859530477846 Z"/></g><g transform="translate(-10,-10) scale(1,1)"><path fill="none" stroke="#000000" d="M 486.9251460406371 276.93859530477846 C 486.9251460406371 273.07260170477844 490.0591524406371 269.93859530477846 493.9251460406371 269.93859530477846 C 497.79113964063714 269.93859530477846 500.9251460406371 273.07260170477844 500.9251460406371 276.93859530477846 C 500.9251460406371 280.8045889047785 497.79113964063714 283.93859530477846 493.9251460406371 283.93859530477846 C 490.0591524406371 283.93859530477846 486.9251460406371 280.8045889047785 486.9251460406371 276.93859530477846 Z" stroke-miterlimit="10"/></g><g transform="translate(-10,-10) scale(1,1)"><path fill="none" stroke="#000000" d="M 494.85029208127423 283.87719060955686 L 493 270" stroke-miterlimit="10"/></g><g transform="translate(-10,-10) scale(1,1)"><path fill="none" stroke="#000000" d="M 500.8637413454156 276.01344926414134 L 486.98655073585866 277.8637413454156" stroke-miterlimit="10"/></g><g transform="translate(-10,-10) scale(1,1)"><path fill="none" stroke="#000000" d="M 585 299 Q 585 285 518 260" stroke-miterlimit="10"/></g><g transform="translate(-10,-10) scale(1,1)"><path fill="#FFFFFF" stroke="none" d="M 517.5583181500574 262.4471336380811 C 517.5583181500574 258.58114003808106 520.6923245500574 255.44713363808108 524.5583181500574 255.44713363808108 C 528.4243117500574 255.44713363808108 531.5583181500574 258.58114003808106 531.5583181500574 262.4471336380811 C 531.5583181500574 266.3131272380811 528.4243117500574 269.4471336380811 524.5583181500574 269.4471336380811 C 520.6923245500574 269.4471336380811 517.5583181500574 266.3131272380811 517.5583181500574 262.4471336380811 Z"/></g><g transform="translate(-10,-10) scale(1,1)"><path fill="none" stroke="#000000" d="M 517.5583181500574 262.4471336380811 C 517.5583181500574 258.58114003808106 520.6923245500574 255.44713363808108 524.5583181500574 255.44713363808108 C 528.4243117500574 255.44713363808108 531.5583181500574 258.58114003808106 531.5583181500574 262.4471336380811 C 531.5583181500574 266.3131272380811 528.4243117500574 269.4471336380811 524.5583181500574 269.4471336380811 C 520.6923245500574 269.4471336380811 517.5583181500574 266.3131272380811 517.5583181500574 262.4471336380811 Z" stroke-miterlimit="10"/></g><g transform="translate(-10,-10) scale(1,1)"><path fill="none" stroke="#000000" d="M 531.1166363001147 264.8942672761622 L 518 260" stroke-miterlimit="10"/></g><g transform="translate(-10,-10) scale(1,1)"><path fill="none" stroke="#000000" d="M 527.0054517881385 255.8888154880237 L 522.1111845119763 269.00545178813843" stroke-miterlimit="10"/></g><g transform="translate(-10,-10) scale(1,1)"><path fill="none" stroke="#000000" d="M 447 369 Q 447 355 559 326" stroke-miterlimit="10"/></g><g transform="translate(-10,-10) scale(1,1)"><path fill="#FFFFFF" stroke="none" d="M 545.2234776517489 327.75463525088645 C 545.2234776517489 323.8886416508864 548.3574840517489 320.75463525088645 552.2234776517489 320.75463525088645 C 556.0894712517489 320.75463525088645 559.2234776517489 323.8886416508864 559.2234776517489 327.75463525088645 C 559.2234776517489 331.6206288508865 556.0894712517489 334.75463525088645 552.2234776517489 334.75463525088645 C 548.3574840517489 334.75463525088645 545.2234776517489 331.6206288508865 545.2234776517489 327.75463525088645 Z"/></g><g transform="translate(-10,-10) scale(1,1)"><path fill="none" stroke="#000000" d="M 545.2234776517489 327.75463525088645 C 545.2234776517489 323.8886416508864 548.3574840517489 320.75463525088645 552.2234776517489 320.75463525088645 C 556.0894712517489 320.75463525088645 559.2234776517489 323.8886416508864 559.2234776517489 327.75463525088645 C 559.2234776517489 331.6206288508865 556.0894712517489 334.75463525088645 552.2234776517489 334.75463525088645 C 548.3574840517489 334.75463525088645 545.2234776517489 331.6206288508865 545.2234776517489 327.75463525088645 Z" stroke-miterlimit="10"/></g><g transform="translate(-10,-10) scale(1,1)"><path fill="none" stroke="#000000" d="M 545.4469553034978 329.5092705017729 L 559 326" stroke-miterlimit="10"/></g><g transform="translate(-10,-10) scale(1,1)"><path fill="none" stroke="#000000" d="M 553.9781129026353 334.53115759913754 L 550.4688424008625 320.97811290263536" stroke-miterlimit="10"/></g><g transform="translate(-10,-10) scale(1,1)"><path fill="none" stroke="#000000" d="M 545 369 Q 545 355 561 340" stroke-miterlimit="10"/></g><g transform="translate(-10,-10) scale(1,1)"><path fill="#FFFFFF" stroke="none" d="M 548.8932395710194 344.7875879021693 C 548.8932395710194 340.9215943021693 552.0272459710194 337.7875879021693 555.8932395710194 337.7875879021693 C 559.7592331710194 337.7875879021693 562.8932395710194 340.9215943021693 562.8932395710194 344.7875879021693 C 562.8932395710194 348.65358150216935 559.7592331710194 351.7875879021693 555.8932395710194 351.7875879021693 C 552.0272459710194 351.7875879021693 548.8932395710194 348.65358150216935 548.8932395710194 344.7875879021693 Z"/></g><g transform="translate(-10,-10) scale(1,1)"><path fill="none" stroke="#000000" d="M 548.8932395710194 344.7875879021693 C 548.8932395710194 340.9215943021693 552.0272459710194 337.7875879021693 555.8932395710194 337.7875879021693 C 559.7592331710194 337.7875879021693 562.8932395710194 340.9215943021693 562.8932395710194 344.7875879021693 C 562.8932395710194 348.65358150216935 559.7592331710194 351.7875879021693 555.8932395710194 351.7875879021693 C 552.0272459710194 351.7875879021693 548.8932395710194 348.65358150216935 548.8932395710194 344.7875879021693 Z" stroke-miterlimit="10"/></g><g transform="translate(-10,-10) scale(1,1)"><path fill="none" stroke="#000000" d="M 550.7864791420388 349.57517580433864 L 561 340" stroke-miterlimit="10"/></g><g transform="translate(-10,-10) scale(1,1)"><path fill="none" stroke="#000000" d="M 560.6808274731887 349.8943483311499 L 551.1056516688501 339.68082747318874" stroke-miterlimit="10"/></g><g transform="translate(-10,-10) scale(1,1)"><path fill="none" stroke="#000000" d="M 625 369 Q 625 355 608 340" stroke-miterlimit="10"/></g><g transform="translate(-10,-10) scale(1,1)"><path fill="#FFFFFF" stroke="none" d="M 606.2488649875556 344.6313514596079 C 606.2488649875556 340.7653578596079 609.3828713875556 337.6313514596079 613.2488649875556 337.6313514596079 C 617.1148585875557 337.6313514596079 620.2488649875556 340.7653578596079 620.2488649875556 344.6313514596079 C 620.2488649875556 348.49734505960794 617.1148585875557 351.6313514596079 613.2488649875556 351.6313514596079 C 609.3828713875556 351.6313514596079 606.2488649875556 348.49734505960794 606.2488649875556 344.6313514596079 Z"/></g><g transform="translate(-10,-10) scale(1,1)"><path fill="none" stroke="#000000" d="M 606.2488649875556 344.6313514596079 C 606.2488649875556 340.7653578596079 609.3828713875556 337.6313514596079 613.2488649875556 337.6313514596079 C 617.1148585875557 337.6313514596079 620.2488649875556 340.7653578596079 620.2488649875556 344.6313514596079 C 620.2488649875556 348.49734505960794 617.1148585875557 351.6313514596079 613.2488649875556 351.6313514596079 C 609.3828713875556 351.6313514596079 606.2488649875556 348.49734505960794 606.2488649875556 344.6313514596079 Z" stroke-miterlimit="10"/></g><g transform="translate(-10,-10) scale(1,1)"><path fill="none" stroke="#000000" d="M 618.4977299751113 349.2627029192158 L 608 340" stroke-miterlimit="10"/></g><g transform="translate(-10,-10) scale(1,1)"><path fill="none" stroke="#000000" d="M 617.8802164471635 339.3824864720523 L 608.6175135279477 349.88021644716355" stroke-miterlimit="10"/></g><g transform="translate(-10,-10) scale(1,1)"><path fill="none" stroke="#000000" d="M 705 369 Q 705 355 610 327" stroke-miterlimit="10"/></g><g transform="translate(-10,-10) scale(1,1)"><path fill="#FFFFFF" stroke="none" d="M 609.7144319712773 328.97899047574487 C 609.7144319712773 325.11299687574484 612.8484383712773 321.97899047574487 616.7144319712773 321.97899047574487 C 620.5804255712774 321.97899047574487 623.7144319712773 325.11299687574484 623.7144319712773 328.97899047574487 C 623.7144319712773 332.8449840757449 620.5804255712774 335.97899047574487 616.7144319712773 335.97899047574487 C 612.8484383712773 335.97899047574487 609.7144319712773 332.8449840757449 609.7144319712773 328.97899047574487 Z"/></g><g transform="translate(-10,-10) scale(1,1)"><path fill="none" stroke="#000000" d="M 609.7144319712773 328.97899047574487 C 609.7144319712773 325.11299687574484 612.8484383712773 321.97899047574487 616.7144319712773 321.97899047574487 C 620.5804255712774 321.97899047574487 623.7144319712773 325.11299687574484 623.7144319712773 328.97899047574487 C 623.7144319712773 332.8449840757449 620.5804255712774 335.97899047574487 616.7144319712773 335.97899047574487 C 612.8484383712773 335.97899047574487 609.7144319712773 332.8449840757449 609.7144319712773 328.97899047574487 Z" stroke-miterlimit="10"/></g><g transform="translate(-10,-10) scale(1,1)"><path fill="none" stroke="#000000" d="M 623.4288639425546 330.9579809514898 L 610 327" stroke-miterlimit="10"/></g><g transform="translate(-10,-10) scale(1,1)"><path fill="none" stroke="#000000" d="M 618.6934224470223 322.2645585044676 L 614.7354414955324 335.69342244702216" stroke-miterlimit="10"/></g><g transform="translate(-10,-10) scale(1,1)"><path fill="none" stroke="#000000" d="M 893 229 Q 893 215 334 181" stroke-miterlimit="10"/></g><g transform="translate(-10,-10) scale(1,1)"><path fill="#FFFFFF" stroke="none" d="M 333.98708782744797 181.42497493047088 C 333.98708782744797 177.55898133047089 337.12109422744794 174.42497493047088 340.98708782744797 174.42497493047088 C 344.853081427448 174.42497493047088 347.98708782744797 177.55898133047089 347.98708782744797 181.42497493047088 C 347.98708782744797 185.29096853047088 344.853081427448 188.42497493047088 340.98708782744797 188.42497493047088 C 337.12109422744794 188.42497493047088 333.98708782744797 185.29096853047088 333.98708782744797 181.42497493047088 Z"/></g><g transform="translate(-10,-10) scale(1,1)"><path fill="none" stroke="#000000" d="M 333.98708782744797 181.42497493047088 C 333.98708782744797 177.55898133047089 337.12109422744794 174.42497493047088 340.98708782744797 174.42497493047088 C 344.853081427448 174.42497493047088 347.98708782744797 177.55898133047089 347.98708782744797 181.42497493047088 C 347.98708782744797 185.29096853047088 344.853081427448 188.42497493047088 340.98708782744797 188.42497493047088 C 337.12109422744794 188.42497493047088 333.98708782744797 185.29096853047088 333.98708782744797 181.42497493047088 Z" stroke-miterlimit="10"/></g><g transform="translate(-10,-10) scale(1,1)"><path fill="none" stroke="#000000" d="M 347.9741756548959 181.8499498609418 L 334 181" stroke-miterlimit="10"/></g><g transform="translate(-10,-10) scale(1,1)"><path fill="none" stroke="#000000" d="M 341.4120627579189 174.43788710302294 L 340.56211289697706 188.41206275791882" stroke-miterlimit="10"/></g><g transform="translate(-10,-10) scale(1,1)"><path fill="none" stroke="#000000" d="M 665 299 Q 665 285 861 254" stroke-miterlimit="10"/></g><g transform="translate(-10,-10) scale(1,1)"><path fill="#FFFFFF" stroke="none" d="M 847.0859454998897 255.09354943624191 C 847.0859454998897 251.22755583624192 850.2199518998897 248.09354943624194 854.0859454998897 248.09354943624194 C 857.9519390998897 248.09354943624194 861.0859454998897 251.22755583624192 861.0859454998897 255.09354943624191 C 861.0859454998897 258.9595430362419 857.9519390998897 262.0935494362419 854.0859454998897 262.0935494362419 C 850.2199518998897 262.0935494362419 847.0859454998897 258.9595430362419 847.0859454998897 255.09354943624191 Z"/></g><g transform="translate(-10,-10) scale(1,1)"><path fill="none" stroke="#000000" d="M 847.0859454998897 255.09354943624191 C 847.0859454998897 251.22755583624192 850.2199518998897 248.09354943624194 854.0859454998897 248.09354943624194 C 857.9519390998897 248.09354943624194 861.0859454998897 251.22755583624192 861.0859454998897 255.09354943624191 C 861.0859454998897 258.9595430362419 857.9519390998897 262.0935494362419 854.0859454998897 262.0935494362419 C 850.2199518998897 262.0935494362419 847.0859454998897 258.9595430362419 847.0859454998897 255.09354943624191 Z" stroke-miterlimit="10"/></g><g transform="translate(-10,-10) scale(1,1)"><path fill="none" stroke="#000000" d="M 847.1718909997795 256.1870988724839 L 861 254" stroke-miterlimit="10"/></g><g transform="translate(-10,-10) scale(1,1)"><path fill="none" stroke="#000000" d="M 855.1794949361316 262.0076039363522 L 852.9923960636478 248.17949493613168" stroke-miterlimit="10"/></g><g transform="translate(-10,-10) scale(1,1)"><path fill="none" stroke="#000000" d="M 748 299 Q 748 285 861 257" stroke-miterlimit="10"/></g><g transform="translate(-10,-10) scale(1,1)"><path fill="#FFFFFF" stroke="none" d="M 847.205480266153 258.68359781015675 C 847.205480266153 254.81760421015676 850.339486666153 251.68359781015675 854.205480266153 251.68359781015675 C 858.071473866153 251.68359781015675 861.205480266153 254.81760421015676 861.205480266153 258.68359781015675 C 861.205480266153 262.5495914101568 858.071473866153 265.68359781015675 854.205480266153 265.68359781015675 C 850.339486666153 265.68359781015675 847.205480266153 262.5495914101568 847.205480266153 258.68359781015675 Z"/></g><g transform="translate(-10,-10) scale(1,1)"><path fill="none" stroke="#000000" d="M 847.205480266153 258.68359781015675 C 847.205480266153 254.81760421015676 850.339486666153 251.68359781015675 854.205480266153 251.68359781015675 C 858.071473866153 251.68359781015675 861.205480266153 254.81760421015676 861.205480266153 258.68359781015675 C 861.205480266153 262.5495914101568 858.071473866153 265.68359781015675 854.205480266153 265.68359781015675 C 850.339486666153 265.68359781015675 847.205480266153 262.5495914101568 847.205480266153 258.68359781015675 Z" stroke-miterlimit="10"/></g><g transform="translate(-10,-10) scale(1,1)"><path fill="none" stroke="#000000" d="M 847.4109605323061 260.3671956203135 L 861 257" stroke-miterlimit="10"/></g><g transform="translate(-10,-10) scale(1,1)"><path fill="none" stroke="#000000" d="M 855.8890780763098 265.4781175440037 L 852.5218824559962 251.88907807630983" stroke-miterlimit="10"/></g><g transform="translate(-10,-10) scale(1,1)"><path fill="none" stroke="#000000" d="M 844 299 Q 844 285 864 270" stroke-miterlimit="10"/></g><g transform="translate(-10,-10) scale(1,1)"><path fill="#FFFFFF" stroke="none" d="M 851.4 274.2 C 851.4 270.33400639999996 854.5340064 267.2 858.4 267.2 C 862.2659936 267.2 865.4 270.33400639999996 865.4 274.2 C 865.4 278.0659936 862.2659936 281.2 858.4 281.2 C 854.5340064 281.2 851.4 278.0659936 851.4 274.2 Z"/></g><g transform="translate(-10,-10) scale(1,1)"><path fill="none" stroke="#000000" d="M 851.4 274.2 C 851.4 270.33400639999996 854.5340064 267.2 858.4 267.2 C 862.2659936 267.2 865.4 270.33400639999996 865.4 274.2 C 865.4 278.0659936 862.2659936 281.2 858.4 281.2 C 854.5340064 281.2 851.4 278.0659936 851.4 274.2 Z" stroke-miterlimit="10"/></g><g transform="translate(-10,-10) scale(1,1)"><path fill="none" stroke="#000000" d="M 852.8 278.4 L 864 270" stroke-miterlimit="10"/></g><g transform="translate(-10,-10) scale(1,1)"><path fill="none" stroke="#000000" d="M 862.6 279.8 L 854.1999999999999 268.59999999999997" stroke-miterlimit="10"/></g><g transform="translate(-10,-10) scale(1,1)"><path fill="none" stroke="#000000" d="M 943 299 Q 943 285 922 270" stroke-miterlimit="10"/></g><g transform="translate(-10,-10) scale(1,1)"><path fill="#FFFFFF" stroke="none" d="M 920.6961342984472 274.0686673560337 C 920.6961342984472 270.2026737560337 923.8301406984472 267.0686673560337 927.6961342984472 267.0686673560337 C 931.5621278984472 267.0686673560337 934.6961342984472 270.2026737560337 934.6961342984472 274.0686673560337 C 934.6961342984472 277.9346609560337 931.5621278984472 281.0686673560337 927.6961342984472 281.0686673560337 C 923.8301406984472 281.0686673560337 920.6961342984472 277.9346609560337 920.6961342984472 274.0686673560337 Z"/></g><g transform="translate(-10,-10) scale(1,1)"><path fill="none" stroke="#000000" d="M 920.6961342984472 274.0686673560337 C 920.6961342984472 270.2026737560337 923.8301406984472 267.0686673560337 927.6961342984472 267.0686673560337 C 931.5621278984472 267.0686673560337 934.6961342984472 270.2026737560337 934.6961342984472 274.0686673560337 C 934.6961342984472 277.9346609560337 931.5621278984472 281.0686673560337 927.6961342984472 281.0686673560337 C 923.8301406984472 281.0686673560337 920.6961342984472 277.9346609560337 920.6961342984472 274.0686673560337 Z" stroke-miterlimit="10"/></g><g transform="translate(-10,-10) scale(1,1)"><path fill="none" stroke="#000000" d="M 933.3922685968943 278.13733471206734 L 922 270" stroke-miterlimit="10"/></g><g transform="translate(-10,-10) scale(1,1)"><path fill="none" stroke="#000000" d="M 931.7648016544808 268.37253305758657 L 923.6274669424135 279.76480165448083" stroke-miterlimit="10"/></g><g transform="translate(-10,-10) scale(1,1)"><path fill="none" stroke="#000000" d="M 1042 299 Q 1042 285 924 257" stroke-miterlimit="10"/></g><g transform="translate(-10,-10) scale(1,1)"><path fill="#FFFFFF" stroke="none" d="M 923.8108801278037 258.61614104727545 C 923.8108801278037 254.75014744727545 926.9448865278036 251.61614104727545 930.8108801278037 251.61614104727545 C 934.6768737278037 251.61614104727545 937.8108801278037 254.75014744727545 937.8108801278037 258.61614104727545 C 937.8108801278037 262.4821346472755 934.6768737278037 265.61614104727545 930.8108801278037 265.61614104727545 C 926.9448865278036 265.61614104727545 923.8108801278037 262.4821346472755 923.8108801278037 258.61614104727545 Z"/></g><g transform="translate(-10,-10) scale(1,1)"><path fill="none" stroke="#000000" d="M 923.8108801278037 258.61614104727545 C 923.8108801278037 254.75014744727545 926.9448865278036 251.61614104727545 930.8108801278037 251.61614104727545 C 934.6768737278037 251.61614104727545 937.8108801278037 254.75014744727545 937.8108801278037 258.61614104727545 C 937.8108801278037 262.4821346472755 934.6768737278037 265.61614104727545 930.8108801278037 265.61614104727545 C 926.9448865278036 265.61614104727545 923.8108801278037 262.4821346472755 923.8108801278037 258.61614104727545 Z" stroke-miterlimit="10"/></g><g transform="translate(-10,-10) scale(1,1)"><path fill="none" stroke="#000000" d="M 937.6217602556075 260.2322820945509 L 924 257" stroke-miterlimit="10"/></g><g transform="translate(-10,-10) scale(1,1)"><path fill="none" stroke="#000000" d="M 932.4270211750792 251.80526091947175 L 929.1947390805282 265.4270211750792" stroke-miterlimit="10"/></g><g transform="translate(-10,-10) scale(1,1)"><path fill="none" stroke="#000000" d="M 1136 299 Q 1136 285 924 254" stroke-miterlimit="10"/></g><g transform="translate(-10,-10) scale(1,1)"><path fill="#FFFFFF" stroke="none" d="M 923.926341574212 255.01281409811588 C 923.926341574212 251.1468204981159 927.0603479742119 248.0128140981159 930.926341574212 248.0128140981159 C 934.792335174212 248.0128140981159 937.926341574212 251.1468204981159 937.926341574212 255.01281409811588 C 937.926341574212 258.87880769811585 934.792335174212 262.0128140981159 930.926341574212 262.0128140981159 C 927.0603479742119 262.0128140981159 923.926341574212 258.87880769811585 923.926341574212 255.01281409811588 Z"/></g><g transform="translate(-10,-10) scale(1,1)"><path fill="none" stroke="#000000" d="M 923.926341574212 255.01281409811588 C 923.926341574212 251.1468204981159 927.0603479742119 248.0128140981159 930.926341574212 248.0128140981159 C 934.792335174212 248.0128140981159 937.926341574212 251.1468204981159 937.926341574212 255.01281409811588 C 937.926341574212 258.87880769811585 934.792335174212 262.0128140981159 930.926341574212 262.0128140981159 C 927.0603479742119 262.0128140981159 923.926341574212 258.87880769811585 923.926341574212 255.01281409811588 Z" stroke-miterlimit="10"/></g><g transform="translate(-10,-10) scale(1,1)"><path fill="none" stroke="#000000" d="M 937.852683148424 256.0256281962318 L 924 254" stroke-miterlimit="10"/></g><g transform="translate(-10,-10) scale(1,1)"><path fill="none" stroke="#000000" d="M 931.9391556723278 248.0864725239039 L 929.9135274760961 261.9391556723279" stroke-miterlimit="10"/></g></g></svg>