<svg version="1.1" xmlns="http://www.w3.org/2000/svg" xmlns:xlink="http://www.w3.org/1999/xlink" width="1320" height="123"><defs/><g><g transform="translate(-10,-10) scale(1,1)"><path fill="#C0C0C0" stroke="none" d="M 109.5 38.5 C 109.5 32.1487248 114.6487248 27 121 27 C 127.3512752 27 132.5 32.1487248 132.5 38.5 C 132.5 44.8512752 127.3512752 50 121 50 C 114.6487248 50 109.5 44.8512752 109.5 38.5 Z" opacity="0.2"/></g><g transform="translate(-10,-10) scale(1,1)"><path fill="#ffffff" stroke="none" d="M 102.5 31.5 C 102.5 25.1487248 107.6487248 20 114 20 C 120.3512752 20 125.5 25.1487248 125.5 31.5 C 125.5 37.8512752 120.3512752 43 114 43 C 107.6487248 43 102.5 37.8512752 102.5 31.5 Z"/></g><g transform="translate(-10,-10) scale(1,1)"><path fill="none" stroke="#000000" d="M 102.5 31.5 C 102.5 25.1487248 107.6487248 20 114 20 C 120.3512752 20 125.5 25.1487248 125.5 31.5 C 125.5 37.8512752 120.3512752 43 114 43 C 107.6487248 43 102.5 37.8512752 102.5 31.5 Z" stroke-miterlimit="10"/></g><g transform="translate(-10,-10) scale(1,1)"><g><path fill="none" stroke="none"/><text fill="#000000" stroke="none" font-family="Arial" font-size="13px" font-style="normal" font-weight="bold" text-decoration="none" x="29" y="62.5">ServerSocketChannelFactory</text></g></g><g transform="translate(-10,-10) scale(1,1)"><path fill="#C0C0C0" stroke="none" d="M 306 38.5 C 306 32.1487248 311.1487248 27 317.5 27 C 323.8512752 27 329 32.1487248 329 38.5 C 329 44.8512752 323.8512752 50 317.5 50 C 311.1487248 50 306 44.8512752 306 38.5 Z" opacity="0.2"/></g><g transform="translate(-10,-10) scale(1,1)"><path fill="#ffffff" stroke="none" d="M 299 31.5 C 299 25.1487248 304.1487248 20 310.5 20 C 316.8512752 20 322 25.1487248 322 31.5 C 322 37.8512752 316.8512752 43 310.5 43 C 304.1487248 43 299 37.8512752 299 31.5 Z"/></g><g transform="translate(-10,-10) scale(1,1)"><path fill="none" stroke="#000000" d="M 299 31.5 C 299 25.1487248 304.1487248 20 310.5 20 C 316.8512752 20 322 25.1487248 322 31.5 C 322 37.8512752 316.8512752 43 310.5 43 C 304.1487248 43 299 37.8512752 299 31.5 Z" stroke-miterlimit="10"/></g><g transform="translate(-10,-10) scale(1,1)"><g><path fill="none" stroke="none"/><text fill="#000000" stroke="none" font-family="Arial" font-size="13px" font-style="normal" font-weight="bold" text-decoration="none" x="248" y="62.5">SocketChannelConfig</text></g></g><g transform="translate(-10,-10) scale(1,1)"><path fill="#C0C0C0" stroke="none" d="M 543 38.5 C 543 32.1487248 548.1487248 27 554.5 27 C 560.8512752 27 566 32.1487248 566 38.5 C 566 44.8512752 560.8512752 50 554.5 50 C 548.1487248 50 543 44.8512752 543 38.5 Z" opacity="0.2"/></g><g transform="translate(-10,-10) scale(1,1)"><path fill="#ffffff" stroke="none" d="M 536 31.5 C 536 25.1487248 541.1487248 20 547.5 20 C 553.8512752 20 559 25.1487248 559 31.5 C 559 37.8512752 553.8512752 43 547.5 43 C 541.1487248 43 536 37.8512752 536 31.5 Z"/></g><g transform="translate(-10,-10) scale(1,1)"><path fill="none" stroke="#000000" d="M 536 31.5 C 536 25.1487248 541.1487248 20 547.5 20 C 553.8512752 20 559 25.1487248 559 31.5 C 559 37.8512752 553.8512752 43 547.5 43 C 541.1487248 43 536 37.8512752 536 31.5 Z" stroke-miterlimit="10"/></g><g transform="translate(-10,-10) scale(1,1)"><g><path fill="none" stroke="none"/><text fill="#000000" stroke="none" font-family="Arial" font-size="13px" font-style="normal" font-weight="bold" text-decoration="none" x="466" y="62.5">ServerSocketChannelConfig</text></g></g><g transform="translate(-10,-10) scale(1,1)"><rect fill="#C0C0C0" stroke="none" x="224.5" y="106" width="186" height="24" opacity="0.2"/></g><g transform="translate(-10,-10) scale(1,1)"><rect fill="#ffffff" stroke="none" x="217.5" y="99" width="186" height="24"/></g><g transform="translate(-10,-10) scale(1,1)"><path fill="none" stroke="#000000" d="M 217.5 99 L 403.5 99 L 403.5 123 L 217.5 123 L 217.5 99 Z Z" stroke-miterlimit="10"/></g><g transform="translate(-10,-10) scale(1,1)"><g><path fill="none" stroke="none"/><text fill="#000000" stroke="none" font-family="Arial" font-size="13px" font-style="normal" font-weight="bold" text-decoration="none" x="227.5" y="118.5">DefaultSocketChannelConfig</text></g></g><g transform="translate(-10,-10) scale(1,1)"><path fill="none" stroke="#000000" d="M 310 98 Q 311 84 310.3157894736842 43" stroke-miterlimit="10"/></g><g transform="translate(-10,-10) scale(1,1)"><path fill="#C0C0C0" stroke="none" d="M 736.5 38.5 C 736.5 32.1487248 741.6487248 27 748 27 C 754.3512752 27 759.5 32.1487248 759.5 38.5 C 759.5 44.8512752 754.3512752 50 748 50 C 741.6487248 50 736.5 44.8512752 736.5 38.5 Z" opacity="0.2"/></g><g transform="translate(-10,-10) scale(1,1)"><path fill="#ffffff" stroke="none" d="M 729.5 31.5 C 729.5 25.1487248 734.6487248 20 741 20 C 747.3512752 20 752.5 25.1487248 752.5 31.5 C 752.5 37.8512752 747.3512752 43 741 43 C 734.6487248 43 729.5 37.8512752 729.5 31.5 Z"/></g><g transform="translate(-10,-10) scale(1,1)"><path fill="none" stroke="#000000" d="M 729.5 31.5 C 729.5 25.1487248 734.6487248 20 741 20 C 747.3512752 20 752.5 25.1487248 752.5 31.5 C 752.5 37.8512752 747.3512752 43 741 43 C 734.6487248 43 729.5 37.8512752 729.5 31.5 Z" stroke-miterlimit="10"/></g><g transform="translate(-10,-10) scale(1,1)"><g><path fill="none" stroke="none"/><text fill="#000000" stroke="none" font-family="Arial" font-size="13px" font-style="normal" font-weight="bold" text-decoration="none" x="678" y="62.5">ServerSocketChannel</text></g></g><g transform="translate(-10,-10) scale(1,1)"><path fill="#C0C0C0" stroke="none" d="M 889.5 38.5 C 889.5 32.1487248 894.6487248 27 901 27 C 907.3512752 27 912.5 32.1487248 912.5 38.5 C 912.5 44.8512752 907.3512752 50 901 50 C 894.6487248 50 889.5 44.8512752 889.5 38.5 Z" opacity="0.2"/></g><g transform="translate(-10,-10) scale(1,1)"><path fill="#ffffff" stroke="none" d="M 882.5 31.5 C 882.5 25.1487248 887.6487248 20 894 20 C 900.3512752 20 905.5 25.1487248 905.5 31.5 C 905.5 37.8512752 900.3512752 43 894 43 C 887.6487248 43 882.5 37.8512752 882.5 31.5 Z"/></g><g transform="translate(-10,-10) scale(1,1)"><path fill="none" stroke="#000000" d="M 882.5 31.5 C 882.5 25.1487248 887.6487248 20 894 20 C 900.3512752 20 905.5 25.1487248 905.5 31.5 C 905.5 37.8512752 900.3512752 43 894 43 C 887.6487248 43 882.5 37.8512752 882.5 31.5 Z" stroke-miterlimit="10"/></g><g transform="translate(-10,-10) scale(1,1)"><g><path fill="none" stroke="none"/><text fill="#000000" stroke="none" font-family="Arial" font-size="13px" font-style="normal" font-weight="bold" text-decoration="none" x="850" y="62.5">SocketChannel</text></g></g><g transform="translate(-10,-10) scale(1,1)"><path fill="#C0C0C0" stroke="none" d="M 1063.5 38.5 C 1063.5 32.1487248 1068.6487248 27 1075 27 C 1081.3512752 27 1086.5 32.1487248 1086.5 38.5 C 1086.5 44.8512752 1081.3512752 50 1075 50 C 1068.6487248 50 1063.5 44.8512752 1063.5 38.5 Z" opacity="0.2"/></g><g transform="translate(-10,-10) scale(1,1)"><path fill="#ffffff" stroke="none" d="M 1056.5 31.5 C 1056.5 25.1487248 1061.6487248 20 1068 20 C 1074.3512752 20 1079.5 25.1487248 1079.5 31.5 C 1079.5 37.8512752 1074.3512752 43 1068 43 C 1061.6487248 43 1056.5 37.8512752 1056.5 31.5 Z"/></g><g transform="translate(-10,-10) scale(1,1)"><path fill="none" stroke="#000000" d="M 1056.5 31.5 C 1056.5 25.1487248 1061.6487248 20 1068 20 C 1074.3512752 20 1079.5 25.1487248 1079.5 31.5 C 1079.5 37.8512752 1074.3512752 43 1068 43 C 1061.6487248 43 1056.5 37.8512752 1056.5 31.5 Z" stroke-miterlimit="10"/></g><g transform="translate(-10,-10) scale(1,1)"><g><path fill="none" stroke="none"/><text fill="#000000" stroke="none" font-family="Arial" font-size="13px" font-style="normal" font-weight="bold" text-decoration="none" x="985.5" y="62.5">ClientSocketChannelFactory</text></g></g><g transform="translate(-10,-10) scale(1,1)"><rect fill="#C0C0C0" stroke="none" x="441.5" y="106" width="226" height="24" opacity="0.2"/></g><g transform="translate(-10,-10) scale(1,1)"><rect fill="#ffffff" stroke="none" x="434.5" y="99" width="226" height="24"/></g><g transform="translate(-10,-10) scale(1,1)"><path fill="none" stroke="#000000" d="M 434.5 99 L 660.5 99 L 660.5 123 L 434.5 123 L 434.5 99 Z Z" stroke-miterlimit="10"/></g><g transform="translate(-10,-10) scale(1,1)"><g><path fill="none" stroke="none"/><text fill="#000000" stroke="none" font-family="Arial" font-size="13px" font-style="normal" font-weight="bold" text-decoration="none" x="445.5" y="118.5">DefaultServerSocketChannelConfig</text></g></g><g transform="translate(-10,-10) scale(1,1)"><path fill="none" stroke="#000000" d="M 547 98 Q 548 84 547.3157894736842 43" stroke-miterlimit="10"/></g><g transform="translate(-10,-10) scale(1,1)"><rect fill="#C0C0C0" stroke="none" x="1198" y="31.5" width="19.59999999999991" height="15" opacity="0.2"/></g><g transform="translate(-10,-10) scale(1,1)"><rect fill="#C0C0C0" stroke="none" x="1198" y="45.5" width="49" height="25" opacity="0.2"/></g><g transform="translate(-10,-10) scale(1,1)"><rect fill="#ffffff" stroke="none" x="1191" y="39.5" width="49" height="24"/></g><g transform="translate(-10,-10) scale(1,1)"><path fill="none" stroke="#000000" d="M 1191 39.5 L 1240 39.5 L 1240 63.5 L 1191 63.5 L 1191 39.5 Z Z" stroke-miterlimit="10"/></g><g transform="translate(-10,-10) scale(1,1)"><rect fill="#ffffff" stroke="none" x="1191" y="24.5" width="19.59999999999991" height="15"/></g><g transform="translate(-10,-10) scale(1,1)"><path fill="none" stroke="#000000" d="M 1191 24.5 L 1210.6 24.5 L 1210.6 39.5 L 1191 39.5 L 1191 24.5 Z Z" stroke-miterlimit="10"/></g><g transform="translate(-10,-10) scale(1,1)"><rect fill="#ffffff" stroke="none" x="1191" y="38.5" width="49" height="25"/></g><g transform="translate(-10,-10) scale(1,1)"><path fill="none" stroke="#000000" d="M 1191 38.5 L 1240 38.5 L 1240 63.5 L 1191 63.5 L 1191 38.5 Z Z" stroke-miterlimit="10"/></g><g transform="translate(-10,-10) scale(1,1)"><g><path fill="none" stroke="none"/><text fill="#000000" stroke="none" font-family="Arial" font-size="13px" font-style="normal" font-weight="bold" text-decoration="none" x="1207" y="59">oio</text></g></g><g transform="translate(-10,-10) scale(1,1)"><rect fill="#C0C0C0" stroke="none" x="1278" y="31.5" width="19.59999999999991" height="15" opacity="0.2"/></g><g transform="translate(-10,-10) scale(1,1)"><rect fill="#C0C0C0" stroke="none" x="1278" y="45.5" width="49" height="25" opacity="0.2"/></g><g transform="translate(-10,-10) scale(1,1)"><rect fill="#ffffff" stroke="none" x="1271" y="39.5" width="49" height="24"/></g><g transform="translate(-10,-10) scale(1,1)"><path fill="none" stroke="#000000" d="M 1271 39.5 L 1320 39.5 L 1320 63.5 L 1271 63.5 L 1271 39.5 Z Z" stroke-miterlimit="10"/></g><g transform="translate(-10,-10) scale(1,1)"><rect fill="#ffffff" stroke="none" x="1271" y="24.5" width="19.59999999999991" height="15"/></g><g transform="translate(-10,-10) scale(1,1)"><path fill="none" stroke="#000000" d="M 1271 24.5 L 1290.6 24.5 L 1290.6 39.5 L 1271 39.5 L 1271 24.5 Z Z" stroke-miterlimit="10"/></g><g transform="translate(-10,-10) scale(1,1)"><rect fill="#ffffff" stroke="none" x="1271" y="38.5" width="49" height="25"/></g><g transform="translate(-10,-10) scale(1,1)"><path fill="none" stroke="#000000" d="M 1271 38.5 L 1320 38.5 L 1320 63.5 L 1271 63.5 L 1271 38.5 Z Z" stroke-miterlimit="10"/></g><g transform="translate(-10,-10) scale(1,1)"><g><path fill="none" stroke="none"/><text fill="#000000" stroke="none" font-family="Arial" font-size="13px" font-style="normal" font-weight="bold" text-decoration="none" x="1287" y="59">nio</text></g></g></g></svg>