<svg version="1.1" xmlns="http://www.w3.org/2000/svg" xmlns:xlink="http://www.w3.org/1999/xlink" width="349.5" height="99"><defs/><g><g transform="translate(-10,-10) scale(1,1)"><rect fill="#C0C0C0" stroke="none" x="47.5" y="27" width="89" height="24" opacity="0.2"/></g><g transform="translate(-10,-10) scale(1,1)"><rect fill="#ffffff" stroke="none" x="40.5" y="20" width="89" height="24"/></g><g transform="translate(-10,-10) scale(1,1)"><path fill="none" stroke="#000000" d="M 40.5 20 L 129.5 20 L 129.5 44 L 40.5 44 L 40.5 20 Z Z" stroke-miterlimit="10"/></g><g transform="translate(-10,-10) scale(1,1)"><g><path fill="none" stroke="none"/><text fill="#000000" stroke="none" font-family="Arial" font-size="13px" font-style="normal" font-weight="bold" text-decoration="none" x="48" y="39.5">EchoHandler</text></g></g><g transform="translate(-10,-10) scale(1,1)"><rect fill="#C0C0C0" stroke="none" x="167.5" y="27" width="81" height="24" opacity="0.2"/></g><g transform="translate(-10,-10) scale(1,1)"><rect fill="#ffffff" stroke="none" x="160.5" y="20" width="81" height="24"/></g><g transform="translate(-10,-10) scale(1,1)"><path fill="none" stroke="#000000" d="M 160.5 20 L 241.5 20 L 241.5 44 L 160.5 44 L 160.5 20 Z Z" stroke-miterlimit="10"/></g><g transform="translate(-10,-10) scale(1,1)"><g><path fill="none" stroke="none"/><text fill="#000000" stroke="none" font-family="Arial" font-size="13px" font-style="normal" font-weight="bold" text-decoration="none" x="167" y="39.5">EchoServer</text></g></g><g transform="translate(-10,-10) scale(1,1)"><rect fill="#C0C0C0" stroke="none" x="279.5" y="27" width="77" height="24" opacity="0.2"/></g><g transform="translate(-10,-10) scale(1,1)"><rect fill="#ffffff" stroke="none" x="272.5" y="20" width="77" height="24"/></g><g transform="translate(-10,-10) scale(1,1)"><path fill="none" stroke="#000000" d="M 272.5 20 L 349.5 20 L 349.5 44 L 272.5 44 L 272.5 20 Z Z" stroke-miterlimit="10"/></g><g transform="translate(-10,-10) scale(1,1)"><g><path fill="none" stroke="none"/><text fill="#000000" stroke="none" font-family="Arial" font-size="13px" font-style="normal" font-weight="bold" text-decoration="none" x="279.5" y="39.5">EchoClient</text></g></g><g transform="translate(-10,-10) scale(1,1)"><rect fill="#C0C0C0" stroke="none" x="27" y="82" width="130" height="24" opacity="0.2"/></g><g transform="translate(-10,-10) scale(1,1)"><rect fill="#ffffff" stroke="none" x="20" y="75" width="130" height="24"/></g><g transform="translate(-10,-10) scale(1,1)"><path fill="none" stroke="#000000" d="M 20 75 L 150 75 L 150 99 L 20 99 L 20 75 Z Z" stroke-miterlimit="10"/></g><g transform="translate(-10,-10) scale(1,1)"><g><path fill="none" stroke="none"/><text fill="#000000" stroke="none" font-family="Arial" font-size="13px" font-style="normal" font-weight="bold" text-decoration="none" x="31" y="94.5">ThroughputMonitor</text></g></g><g transform="translate(-10,-10) scale(1,1)"><path fill="none" stroke="#000000" d="M 85 74 Q 86 60 85 45" stroke-miterlimit="10"/></g><g transform="translate(-10,-10) scale(1,1)"><path fill="none" stroke="#000000" d="M 89.8762054144906 54.86015318114747 L 85 45 L 81.47581673711738 55.42017909297235" stroke-miterlimit="10"/></g><g transform="translate(-10,-10) scale(1,1)"><g><path fill="none" stroke="none"/><text fill="#000000" stroke="none" font-family="Arial" font-size="13px" font-style="normal" font-weight="normal" text-decoration="none" x="32.5" y="77.5">-echoHandler</text></g></g><g transform="translate(-10,-10) scale(1,1)"><g><path fill="none" stroke="none"/><text fill="#000000" stroke="none" font-family="Arial" font-size="13px" font-style="normal" font-weight="normal" text-decoration="none" x="27.5" y="81.5">{readOnly}</text></g></g></g></svg>