<svg version="1.1" xmlns="http://www.w3.org/2000/svg" xmlns:xlink="http://www.w3.org/1999/xlink" width="3200" height="340"><defs/><g><g transform="translate(1,-10) scale(1,1)"><rect fill="#C0C0C0" stroke="none" x="1099.75" y="323" width="202" height="24" opacity="0.2"/></g><g transform="translate(1,-10) scale(1,1)"><rect fill="#ffffff" stroke="none" x="1092.75" y="316" width="202" height="24"/></g><g transform="translate(1,-10) scale(1,1)"><path fill="none" stroke="#000000" d="M 1092.75 316 L 1294.75 316 L 1294.75 340 L 1092.75 340 L 1092.75 316 Z Z" stroke-miterlimit="10"/></g><g transform="translate(1,-10) scale(1,1)"><g><path fill="none" stroke="none"/><text fill="#000000" stroke="none" font-family="Arial" font-size="13px" font-style="normal" font-weight="bold" text-decoration="none" x="1102.75" y="335.5">DefaultChildChannelStateEvent</text></g></g><g transform="translate(1,-10) scale(1,1)"><path fill="#C0C0C0" stroke="none" d="M 1063.25 38.5 C 1063.25 32.1487248 1068.3987248 27 1074.75 27 C 1081.1012752 27 1086.25 32.1487248 1086.25 38.5 C 1086.25 44.8512752 1081.1012752 50 1074.75 50 C 1068.3987248 50 1063.25 44.8512752 1063.25 38.5 Z" opacity="0.2"/></g><g transform="translate(1,-10) scale(1,1)"><path fill="#ffffff" stroke="none" d="M 1056.25 31.5 C 1056.25 25.1487248 1061.3987248 20 1067.75 20 C 1074.1012752 20 1079.25 25.1487248 1079.25 31.5 C 1079.25 37.8512752 1074.1012752 43 1067.75 43 C 1061.3987248 43 1056.25 37.8512752 1056.25 31.5 Z"/></g><g transform="translate(1,-10) scale(1,1)"><path fill="none" stroke="#000000" d="M 1056.25 31.5 C 1056.25 25.1487248 1061.3987248 20 1067.75 20 C 1074.1012752 20 1079.25 25.1487248 1079.25 31.5 C 1079.25 37.8512752 1074.1012752 43 1067.75 43 C 1061.3987248 43 1056.25 37.8512752 1056.25 31.5 Z" stroke-miterlimit="10"/></g><g transform="translate(1,-10) scale(1,1)"><g><path fill="none" stroke="none"/><text fill="#000000" stroke="none" font-family="Arial" font-size="13px" font-style="normal" font-weight="bold" text-decoration="none" x="999.75" y="62.5">ChannelHandlerContext</text></g></g><g transform="translate(1,-10) scale(1,1)"><path fill="#C0C0C0" stroke="none" d="M 447.75 102.5 C 447.75 96.1487248 452.8987248 91 459.25 91 C 465.6012752 91 470.75 96.1487248 470.75 102.5 C 470.75 108.8512752 465.6012752 114 459.25 114 C 452.8987248 114 447.75 108.8512752 447.75 102.5 Z" opacity="0.2"/></g><g transform="translate(1,-10) scale(1,1)"><path fill="#ffffff" stroke="none" d="M 440.75 95.5 C 440.75 89.1487248 445.8987248 84 452.25 84 C 458.6012752 84 463.75 89.1487248 463.75 95.5 C 463.75 101.8512752 458.6012752 107 452.25 107 C 445.8987248 107 440.75 101.8512752 440.75 95.5 Z"/></g><g transform="translate(1,-10) scale(1,1)"><path fill="none" stroke="#000000" d="M 440.75 95.5 C 440.75 89.1487248 445.8987248 84 452.25 84 C 458.6012752 84 463.75 89.1487248 463.75 95.5 C 463.75 101.8512752 458.6012752 107 452.25 107 C 445.8987248 107 440.75 101.8512752 440.75 95.5 Z" stroke-miterlimit="10"/></g><g transform="translate(1,-10) scale(1,1)"><g><path fill="none" stroke="none"/><text fill="#000000" stroke="none" font-family="Arial" font-size="13px" font-style="normal" font-weight="bold" text-decoration="none" x="411.75" y="126.5">ChannelEvent</text></g></g><g transform="translate(1,-10) scale(1,1)"><path fill="#C0C0C0" stroke="none" d="M 1085.75 102.5 C 1085.75 96.1487248 1090.8987248 91 1097.25 91 C 1103.6012752 91 1108.75 96.1487248 1108.75 102.5 C 1108.75 108.8512752 1103.6012752 114 1097.25 114 C 1090.8987248 114 1085.75 108.8512752 1085.75 102.5 Z" opacity="0.2"/></g><g transform="translate(1,-10) scale(1,1)"><path fill="#ffffff" stroke="none" d="M 1078.75 95.5 C 1078.75 89.1487248 1083.8987248 84 1090.25 84 C 1096.6012752 84 1101.75 89.1487248 1101.75 95.5 C 1101.75 101.8512752 1096.6012752 107 1090.25 107 C 1083.8987248 107 1078.75 101.8512752 1078.75 95.5 Z"/></g><g transform="translate(1,-10) scale(1,1)"><path fill="none" stroke="#000000" d="M 1078.75 95.5 C 1078.75 89.1487248 1083.8987248 84 1090.25 84 C 1096.6012752 84 1101.75 89.1487248 1101.75 95.5 C 1101.75 101.8512752 1096.6012752 107 1090.25 107 C 1083.8987248 107 1078.75 101.8512752 1078.75 95.5 Z" stroke-miterlimit="10"/></g><g transform="translate(1,-10) scale(1,1)"><g><path fill="none" stroke="none"/><text fill="#000000" stroke="none" font-family="Arial" font-size="13px" font-style="normal" font-weight="bold" text-decoration="none" x="1053.75" y="126.5">ChannelSink</text></g></g><g transform="translate(1,-10) scale(1,1)"><path fill="#C0C0C0" stroke="none" d="M 1391.5 102.5 C 1391.5 96.1487248 1396.6487248 91 1403 91 C 1409.3512752 91 1414.5 96.1487248 1414.5 102.5 C 1414.5 108.8512752 1409.3512752 114 1403 114 C 1396.6487248 114 1391.5 108.8512752 1391.5 102.5 Z" opacity="0.2"/></g><g transform="translate(1,-10) scale(1,1)"><path fill="#ffffff" stroke="none" d="M 1384.5 95.5 C 1384.5 89.1487248 1389.6487248 84 1396 84 C 1402.3512752 84 1407.5 89.1487248 1407.5 95.5 C 1407.5 101.8512752 1402.3512752 107 1396 107 C 1389.6487248 107 1384.5 101.8512752 1384.5 95.5 Z"/></g><g transform="translate(1,-10) scale(1,1)"><path fill="none" stroke="#000000" d="M 1384.5 95.5 C 1384.5 89.1487248 1389.6487248 84 1396 84 C 1402.3512752 84 1407.5 89.1487248 1407.5 95.5 C 1407.5 101.8512752 1402.3512752 107 1396 107 C 1389.6487248 107 1384.5 101.8512752 1384.5 95.5 Z" stroke-miterlimit="10"/></g><g transform="translate(1,-10) scale(1,1)"><g><path fill="none" stroke="none"/><text fill="#000000" stroke="none" font-family="Arial" font-size="13px" font-style="normal" font-weight="bold" text-decoration="none" x="1354" y="126.5">ChannelFuture</text></g></g><g transform="translate(1,-10) scale(1,1)"><rect fill="#C0C0C0" stroke="none" x="130.5" y="323" width="169" height="24" opacity="0.2"/></g><g transform="translate(1,-10) scale(1,1)"><rect fill="#ffffff" stroke="none" x="123.5" y="316" width="169" height="24"/></g><g transform="translate(1,-10) scale(1,1)"><path fill="none" stroke="#000000" d="M 123.5 316 L 292.5 316 L 292.5 340 L 123.5 340 L 123.5 316 Z Z" stroke-miterlimit="10"/></g><g transform="translate(1,-10) scale(1,1)"><g><path fill="none" stroke="none"/><text fill="#000000" stroke="none" font-family="Arial" font-size="13px" font-style="normal" font-weight="bold" text-decoration="none" x="131.5" y="335.5">DefaultChannelStateEvent</text></g></g><g transform="translate(1,-10) scale(1,1)"><rect fill="#C0C0C0" stroke="none" x="1516.25" y="323" width="138" height="24" opacity="0.2"/></g><g transform="translate(1,-10) scale(1,1)"><rect fill="#ffffff" stroke="none" x="1509.25" y="316" width="138" height="24"/></g><g transform="translate(1,-10) scale(1,1)"><path fill="none" stroke="#000000" d="M 1509.25 316 L 1647.25 316 L 1647.25 340 L 1509.25 340 L 1509.25 316 Z Z" stroke-miterlimit="10"/></g><g transform="translate(1,-10) scale(1,1)"><g><path fill="none" stroke="none"/><text fill="#000000" stroke="none" font-family="Arial" font-size="13px" font-style="normal" font-weight="bold" text-decoration="none" x="1518.75" y="335.5">FailedChannelFuture</text></g></g><g transform="translate(1,-10) scale(1,1)"><rect fill="#C0C0C0" stroke="none" x="1685.25" y="323" width="168" height="24" opacity="0.2"/></g><g transform="translate(1,-10) scale(1,1)"><rect fill="#ffffff" stroke="none" x="1678.25" y="316" width="168" height="24"/></g><g transform="translate(1,-10) scale(1,1)"><path fill="none" stroke="#000000" d="M 1678.25 316 L 1846.25 316 L 1846.25 340 L 1678.25 340 L 1678.25 316 Z Z" stroke-miterlimit="10"/></g><g transform="translate(1,-10) scale(1,1)"><g><path fill="none" stroke="none"/><text fill="#000000" stroke="none" font-family="Arial" font-size="13px" font-style="normal" font-weight="bold" text-decoration="none" x="1687.75" y="335.5">SucceededChannelFuture</text></g></g><g transform="translate(1,-10) scale(1,1)"><rect fill="#C0C0C0" stroke="none" x="27" y="224.5" width="94" height="37" opacity="0.2"/></g><g transform="translate(1,-10) scale(1,1)"><rect fill="#ffffff" stroke="none" x="20" y="217.5" width="94" height="37"/></g><g transform="translate(1,-10) scale(1,1)"><path fill="none" stroke="#000000" d="M 20 217.5 L 114 217.5 L 114 254.5 L 20 254.5 L 20 217.5 Z Z" stroke-miterlimit="10"/></g><g transform="translate(1,-10) scale(1,1)"><g><path fill="none" stroke="none"/><text fill="#000000" stroke="none" font-family="Arial" font-size="13px" font-style="normal" font-weight="normal" text-decoration="none" x="24.5" y="235">«enumeration»</text></g></g><g transform="translate(1,-10) scale(1,1)"><g><path fill="none" stroke="none"/><text fill="#000000" stroke="none" font-family="Arial" font-size="13px" font-style="normal" font-weight="bold" text-decoration="none" x="28" y="250">ChannelState</text></g></g><g transform="translate(1,-10) scale(1,1)"><path fill="none" stroke="#000000" d="M 161 315 Q 68 289 67 256" stroke-miterlimit="10"/></g><g transform="translate(1,-10) scale(1,1)"><path fill="none" stroke="#000000" d="M 71.51540488725318 266.0305093940522 L 67 256 L 63.1002322042899 266.2855146268693" stroke-miterlimit="10"/></g><g transform="translate(1,-10) scale(1,1)"><g><path fill="none" stroke="none"/><text fill="#000000" stroke="none" font-family="Arial" font-size="13px" font-style="normal" font-weight="normal" text-decoration="none" x="35.5" y="288.5">-state</text></g></g><g transform="translate(1,-10) scale(1,1)"><g><path fill="none" stroke="none"/><text fill="#000000" stroke="none" font-family="Arial" font-size="13px" font-style="normal" font-weight="normal" text-decoration="none" x="8.5" y="291.5">{readOnly}</text></g></g><g transform="translate(1,-10) scale(1,1)"><path fill="#C0C0C0" stroke="none" d="M 501 230.5 C 501 224.1487248 506.1487248 219 512.5 219 C 518.8512752 219 524 224.1487248 524 230.5 C 524 236.8512752 518.8512752 242 512.5 242 C 506.1487248 242 501 236.8512752 501 230.5 Z" opacity="0.2"/></g><g transform="translate(1,-10) scale(1,1)"><path fill="#ffffff" stroke="none" d="M 494 223.5 C 494 217.1487248 499.1487248 212 505.5 212 C 511.8512752 212 517 217.1487248 517 223.5 C 517 229.8512752 511.8512752 235 505.5 235 C 499.1487248 235 494 229.8512752 494 223.5 Z"/></g><g transform="translate(1,-10) scale(1,1)"><path fill="none" stroke="#000000" d="M 494 223.5 C 494 217.1487248 499.1487248 212 505.5 212 C 511.8512752 212 517 217.1487248 517 223.5 C 517 229.8512752 511.8512752 235 505.5 235 C 499.1487248 235 494 229.8512752 494 223.5 Z" stroke-miterlimit="10"/></g><g transform="translate(1,-10) scale(1,1)"><g><path fill="none" stroke="none"/><text fill="#000000" stroke="none" font-family="Arial" font-size="13px" font-style="normal" font-weight="bold" text-decoration="none" x="459.5" y="254.5">ExceptionEvent</text></g></g><g transform="translate(1,-10) scale(1,1)"><path fill="none" stroke="#000000" d="M 505 211 Q 506 173 473 133" stroke-miterlimit="10"/></g><g transform="translate(1,-10) scale(1,1)"><path fill="#FFFFFF" stroke="none" d="M 492.4289251341043 143.32070095164903 L 473 133 L 479.44048708398145 154.0361623430004"/></g><g transform="translate(1,-10) scale(1,1)"><path fill="none" stroke="#000000" d="M 492.4289251341043 143.32070095164903 L 473 133 L 479.44048708398145 154.0361623430004 L 492.4289251341043 143.32070095164903" stroke-miterlimit="10"/></g><g transform="translate(1,-10) scale(1,1)"><path fill="#C0C0C0" stroke="none" d="M 3047.75 102.5 C 3047.75 96.1487248 3052.8987248 91 3059.25 91 C 3065.6012752 91 3070.75 96.1487248 3070.75 102.5 C 3070.75 108.8512752 3065.6012752 114 3059.25 114 C 3052.8987248 114 3047.75 108.8512752 3047.75 102.5 Z" opacity="0.2"/></g><g transform="translate(1,-10) scale(1,1)"><path fill="#ffffff" stroke="none" d="M 3040.75 95.5 C 3040.75 89.1487248 3045.8987248 84 3052.25 84 C 3058.6012752 84 3063.75 89.1487248 3063.75 95.5 C 3063.75 101.8512752 3058.6012752 107 3052.25 107 C 3045.8987248 107 3040.75 101.8512752 3040.75 95.5 Z"/></g><g transform="translate(1,-10) scale(1,1)"><path fill="none" stroke="#000000" d="M 3040.75 95.5 C 3040.75 89.1487248 3045.8987248 84 3052.25 84 C 3058.6012752 84 3063.75 89.1487248 3063.75 95.5 C 3063.75 101.8512752 3058.6012752 107 3052.25 107 C 3045.8987248 107 3040.75 101.8512752 3040.75 95.5 Z" stroke-miterlimit="10"/></g><g transform="translate(1,-10) scale(1,1)"><g><path fill="none" stroke="none"/><text fill="#000000" stroke="none" font-family="Arial" font-size="13px" font-style="normal" font-weight="bold" text-decoration="none" x="2987.25" y="126.5">ChannelFutureListener</text></g></g><g transform="translate(1,-10) scale(1,1)"><path fill="none" stroke="#000000" d="M 3052 84 L 3052 64 L 3157 64 L 3157 108 L 3127 108" stroke-miterlimit="10"/></g><g transform="translate(1,-10) scale(1,1)"><path fill="none" stroke="#000000" d="M 3137.162674857624 103.79048224398402 L 3127 108 L 3137.162674857624 112.20951775601598" stroke-miterlimit="10"/></g><g transform="translate(1,-10) scale(1,1)"><g><path fill="none" stroke="none"/><text fill="#000000" stroke="none" font-family="Arial" font-size="13px" font-style="normal" font-weight="normal" text-decoration="none" x="3125.5" y="128.5">~CLOSE</text></g></g><g transform="translate(1,-10) scale(1,1)"><g><path fill="none" stroke="none"/><text fill="#000000" stroke="none" font-family="Arial" font-size="13px" font-style="normal" font-weight="normal" text-decoration="none" x="3119.5" y="142.5">{static=true}</text></g></g><g transform="translate(1,-10) scale(1,1)"><path fill="none" stroke="#000000" d="M 3052 84 L 3052 64 L 3157 64 L 3157 108 L 3127 108" stroke-miterlimit="10"/></g><g transform="translate(1,-10) scale(1,1)"><path fill="none" stroke="#000000" d="M 3137.162674857624 103.79048224398402 L 3127 108 L 3137.162674857624 112.20951775601598" stroke-miterlimit="10"/></g><g transform="translate(1,-10) scale(1,1)"><g><path fill="none" stroke="none"/><text fill="#000000" stroke="none" font-family="Arial" font-size="13px" font-style="normal" font-weight="normal" text-decoration="none" x="3125.5" y="128.5">~CLOSE</text></g></g><g transform="translate(1,-10) scale(1,1)"><g><path fill="none" stroke="none"/><text fill="#000000" stroke="none" font-family="Arial" font-size="13px" font-style="normal" font-weight="normal" text-decoration="none" x="3119.5" y="142.5">{static=true}</text></g></g><g transform="translate(1,-10) scale(1,1)"><path fill="#C0C0C0" stroke="none" d="M 346.5 230.5 C 346.5 224.1487248 351.6487248 219 358 219 C 364.3512752 219 369.5 224.1487248 369.5 230.5 C 369.5 236.8512752 364.3512752 242 358 242 C 351.6487248 242 346.5 236.8512752 346.5 230.5 Z" opacity="0.2"/></g><g transform="translate(1,-10) scale(1,1)"><path fill="#ffffff" stroke="none" d="M 339.5 223.5 C 339.5 217.1487248 344.6487248 212 351 212 C 357.3512752 212 362.5 217.1487248 362.5 223.5 C 362.5 229.8512752 357.3512752 235 351 235 C 344.6487248 235 339.5 229.8512752 339.5 223.5 Z"/></g><g transform="translate(1,-10) scale(1,1)"><path fill="none" stroke="#000000" d="M 339.5 223.5 C 339.5 217.1487248 344.6487248 212 351 212 C 357.3512752 212 362.5 217.1487248 362.5 223.5 C 362.5 229.8512752 357.3512752 235 351 235 C 344.6487248 235 339.5 229.8512752 339.5 223.5 Z" stroke-miterlimit="10"/></g><g transform="translate(1,-10) scale(1,1)"><g><path fill="none" stroke="none"/><text fill="#000000" stroke="none" font-family="Arial" font-size="13px" font-style="normal" font-weight="bold" text-decoration="none" x="307.5" y="254.5">MessageEvent</text></g></g><g transform="translate(1,-10) scale(1,1)"><path fill="none" stroke="#000000" d="M 351 211 Q 352 173 414 133" stroke-miterlimit="10"/></g><g transform="translate(1,-10) scale(1,1)"><path fill="#FFFFFF" stroke="none" d="M 401.4848621293502 151.09340554120828 L 414 133 L 392.35649139123234 136.94443089712559"/></g><g transform="translate(1,-10) scale(1,1)"><path fill="none" stroke="#000000" d="M 401.4848621293502 151.09340554120828 L 414 133 L 392.35649139123234 136.94443089712559 L 401.4848621293502 151.09340554120828" stroke-miterlimit="10"/></g><g transform="translate(1,-10) scale(1,1)"><rect fill="#C0C0C0" stroke="none" x="1183.25" y="39" width="122" height="24" opacity="0.2"/></g><g transform="translate(1,-10) scale(1,1)"><rect fill="#ffffff" stroke="none" x="1176.25" y="32" width="122" height="24"/></g><g transform="translate(1,-10) scale(1,1)"><path fill="none" stroke="#000000" d="M 1176.25 32 L 1298.25 32 L 1298.25 56 L 1176.25 56 L 1176.25 32 Z Z" stroke-miterlimit="10"/></g><g transform="translate(1,-10) scale(1,1)"><g><path fill="none" stroke="none"/><text fill="#000000" stroke="none" font-family="Arial" font-size="13px" font-style="normal" font-weight="bold" text-decoration="none" x="1184.75" y="51.5">ChannelException</text></g></g><g transform="translate(1,-10) scale(1,1)"><path fill="#C0C0C0" stroke="none" d="M 1911 38.5 C 1911 32.1487248 1916.1487248 27 1922.5 27 C 1928.8512752 27 1934 32.1487248 1934 38.5 C 1934 44.8512752 1928.8512752 50 1922.5 50 C 1916.1487248 50 1911 44.8512752 1911 38.5 Z" opacity="0.2"/></g><g transform="translate(1,-10) scale(1,1)"><path fill="#ffffff" stroke="none" d="M 1904 31.5 C 1904 25.1487248 1909.1487248 20 1915.5 20 C 1921.8512752 20 1927 25.1487248 1927 31.5 C 1927 37.8512752 1921.8512752 43 1915.5 43 C 1909.1487248 43 1904 37.8512752 1904 31.5 Z"/></g><g transform="translate(1,-10) scale(1,1)"><path fill="none" stroke="#000000" d="M 1904 31.5 C 1904 25.1487248 1909.1487248 20 1915.5 20 C 1921.8512752 20 1927 25.1487248 1927 31.5 C 1927 37.8512752 1921.8512752 43 1915.5 43 C 1909.1487248 43 1904 37.8512752 1904 31.5 Z" stroke-miterlimit="10"/></g><g transform="translate(1,-10) scale(1,1)"><g><path fill="none" stroke="none"/><text fill="#000000" stroke="none" font-family="Arial" font-size="13px" font-style="normal" font-weight="bold" text-decoration="none" x="1873.5" y="62.5">ChannelConfig</text></g></g><g transform="translate(1,-10) scale(1,1)"><path fill="#C0C0C0" stroke="none" d="M 1842.25 102.5 C 1842.25 96.1487248 1847.3987248 91 1853.75 91 C 1860.1012752 91 1865.25 96.1487248 1865.25 102.5 C 1865.25 108.8512752 1860.1012752 114 1853.75 114 C 1847.3987248 114 1842.25 108.8512752 1842.25 102.5 Z" opacity="0.2"/></g><g transform="translate(1,-10) scale(1,1)"><path fill="#ffffff" stroke="none" d="M 1835.25 95.5 C 1835.25 89.1487248 1840.3987248 84 1846.75 84 C 1853.1012752 84 1858.25 89.1487248 1858.25 95.5 C 1858.25 101.8512752 1853.1012752 107 1846.75 107 C 1840.3987248 107 1835.25 101.8512752 1835.25 95.5 Z"/></g><g transform="translate(1,-10) scale(1,1)"><path fill="none" stroke="#000000" d="M 1835.25 95.5 C 1835.25 89.1487248 1840.3987248 84 1846.75 84 C 1853.1012752 84 1858.25 89.1487248 1858.25 95.5 C 1858.25 101.8512752 1853.1012752 107 1846.75 107 C 1840.3987248 107 1835.25 101.8512752 1835.25 95.5 Z" stroke-miterlimit="10"/></g><g transform="translate(1,-10) scale(1,1)"><g><path fill="none" stroke="none"/><text fill="#000000" stroke="none" font-family="Arial" font-size="13px" font-style="normal" font-weight="bold" text-decoration="none" x="1823.25" y="126.5">Channel</text></g></g><g transform="translate(1,-10) scale(1,1)"><path fill="none" stroke="#000000" d="M 1296 320 Q 1725 289 1725 231 Q 1725 173 1816 124" stroke-miterlimit="10"/></g><g transform="translate(1,-10) scale(1,1)"><path fill="none" stroke="#000000" d="M 1809.0477901131462 132.52448108034335 L 1816 124 L 1805.0563268667663 125.11176362278071" stroke-miterlimit="10"/></g><g transform="translate(1,-10) scale(1,1)"><g><path fill="none" stroke="none"/><text fill="#000000" stroke="none" font-family="Arial" font-size="13px" font-style="normal" font-weight="normal" text-decoration="none" x="1746.5" y="129.5">-childChannel</text></g></g><g transform="translate(1,-10) scale(1,1)"><g><path fill="none" stroke="none"/><text fill="#000000" stroke="none" font-family="Arial" font-size="13px" font-style="normal" font-weight="normal" text-decoration="none" x="1746.5" y="118.5">{readOnly}</text></g></g><g transform="translate(1,-10) scale(1,1)"><path fill="#C0C0C0" stroke="none" d="M 2216 102.5 C 2216 96.1487248 2221.1487248 91 2227.5 91 C 2233.8512752 91 2239 96.1487248 2239 102.5 C 2239 108.8512752 2233.8512752 114 2227.5 114 C 2221.1487248 114 2216 108.8512752 2216 102.5 Z" opacity="0.2"/></g><g transform="translate(1,-10) scale(1,1)"><path fill="#ffffff" stroke="none" d="M 2209 95.5 C 2209 89.1487248 2214.1487248 84 2220.5 84 C 2226.8512752 84 2232 89.1487248 2232 95.5 C 2232 101.8512752 2226.8512752 107 2220.5 107 C 2214.1487248 107 2209 101.8512752 2209 95.5 Z"/></g><g transform="translate(1,-10) scale(1,1)"><path fill="none" stroke="#000000" d="M 2209 95.5 C 2209 89.1487248 2214.1487248 84 2220.5 84 C 2226.8512752 84 2232 89.1487248 2232 95.5 C 2232 101.8512752 2226.8512752 107 2220.5 107 C 2214.1487248 107 2209 101.8512752 2209 95.5 Z" stroke-miterlimit="10"/></g><g transform="translate(1,-10) scale(1,1)"><g><path fill="none" stroke="none"/><text fill="#000000" stroke="none" font-family="Arial" font-size="13px" font-style="normal" font-weight="bold" text-decoration="none" x="2175" y="126.5">ChannelFactory</text></g></g><g transform="translate(1,-10) scale(1,1)"><path fill="#C0C0C0" stroke="none" d="M 2339 166.5 C 2339 160.1487248 2344.1487248 155 2350.5 155 C 2356.8512752 155 2362 160.1487248 2362 166.5 C 2362 172.8512752 2356.8512752 178 2350.5 178 C 2344.1487248 178 2339 172.8512752 2339 166.5 Z" opacity="0.2"/></g><g transform="translate(1,-10) scale(1,1)"><path fill="#ffffff" stroke="none" d="M 2332 159.5 C 2332 153.1487248 2337.1487248 148 2343.5 148 C 2349.8512752 148 2355 153.1487248 2355 159.5 C 2355 165.8512752 2349.8512752 171 2343.5 171 C 2337.1487248 171 2332 165.8512752 2332 159.5 Z"/></g><g transform="translate(1,-10) scale(1,1)"><path fill="none" stroke="#000000" d="M 2332 159.5 C 2332 153.1487248 2337.1487248 148 2343.5 148 C 2349.8512752 148 2355 153.1487248 2355 159.5 C 2355 165.8512752 2349.8512752 171 2343.5 171 C 2337.1487248 171 2332 165.8512752 2332 159.5 Z" stroke-miterlimit="10"/></g><g transform="translate(1,-10) scale(1,1)"><g><path fill="none" stroke="none"/><text fill="#000000" stroke="none" font-family="Arial" font-size="13px" font-style="normal" font-weight="bold" text-decoration="none" x="2262" y="190.5">ChannelDownstreamHandler</text></g></g><g transform="translate(1,-10) scale(1,1)"><rect fill="#C0C0C0" stroke="none" x="854.5" y="231" width="139" height="24" opacity="0.2"/></g><g transform="translate(1,-10) scale(1,1)"><rect fill="#ffffff" stroke="none" x="847.5" y="224" width="139" height="24"/></g><g transform="translate(1,-10) scale(1,1)"><path fill="none" stroke="#000000" d="M 847.5 224 L 986.5 224 L 986.5 248 L 847.5 248 L 847.5 224 Z Z" stroke-miterlimit="10"/></g><g transform="translate(1,-10) scale(1,1)"><g><path fill="none" stroke="none"/><text fill="#000000" stroke="none" font-family="Arial" font-size="13px" font-style="italic" font-weight="bold" text-decoration="none" x="856" y="243.5">AbstractChannelSink</text></g></g><g transform="translate(1,-10) scale(1,1)"><path fill="none" stroke="#000000" d="M 917 223 Q 918 173 1078.75 102.5" stroke-miterlimit="10"/></g><g transform="translate(1,-10) scale(1,1)"><path fill="#C0C0C0" stroke="none" d="M 2076.5 102.5 C 2076.5 96.1487248 2081.6487248 91 2088 91 C 2094.3512752 91 2099.5 96.1487248 2099.5 102.5 C 2099.5 108.8512752 2094.3512752 114 2088 114 C 2081.6487248 114 2076.5 108.8512752 2076.5 102.5 Z" opacity="0.2"/></g><g transform="translate(1,-10) scale(1,1)"><path fill="#ffffff" stroke="none" d="M 2069.5 95.5 C 2069.5 89.1487248 2074.6487248 84 2081 84 C 2087.3512752 84 2092.5 89.1487248 2092.5 95.5 C 2092.5 101.8512752 2087.3512752 107 2081 107 C 2074.6487248 107 2069.5 101.8512752 2069.5 95.5 Z"/></g><g transform="translate(1,-10) scale(1,1)"><path fill="none" stroke="#000000" d="M 2069.5 95.5 C 2069.5 89.1487248 2074.6487248 84 2081 84 C 2087.3512752 84 2092.5 89.1487248 2092.5 95.5 C 2092.5 101.8512752 2087.3512752 107 2081 107 C 2074.6487248 107 2069.5 101.8512752 2069.5 95.5 Z" stroke-miterlimit="10"/></g><g transform="translate(1,-10) scale(1,1)"><g><path fill="none" stroke="none"/><text fill="#000000" stroke="none" font-family="Arial" font-size="13px" font-style="normal" font-weight="bold" text-decoration="none" x="2034.5" y="126.5">ChannelPipeline</text></g></g><g transform="translate(1,-10) scale(1,1)"><path fill="#C0C0C0" stroke="none" d="M 686 230.5 C 686 224.1487248 691.1487248 219 697.5 219 C 703.8512752 219 709 224.1487248 709 230.5 C 709 236.8512752 703.8512752 242 697.5 242 C 691.1487248 242 686 236.8512752 686 230.5 Z" opacity="0.2"/></g><g transform="translate(1,-10) scale(1,1)"><path fill="#ffffff" stroke="none" d="M 679 223.5 C 679 217.1487248 684.1487248 212 690.5 212 C 696.8512752 212 702 217.1487248 702 223.5 C 702 229.8512752 696.8512752 235 690.5 235 C 684.1487248 235 679 229.8512752 679 223.5 Z"/></g><g transform="translate(1,-10) scale(1,1)"><path fill="none" stroke="#000000" d="M 679 223.5 C 679 217.1487248 684.1487248 212 690.5 212 C 696.8512752 212 702 217.1487248 702 223.5 C 702 229.8512752 696.8512752 235 690.5 235 C 684.1487248 235 679 229.8512752 679 223.5 Z" stroke-miterlimit="10"/></g><g transform="translate(1,-10) scale(1,1)"><g><path fill="none" stroke="none"/><text fill="#000000" stroke="none" font-family="Arial" font-size="13px" font-style="normal" font-weight="bold" text-decoration="none" x="620" y="254.5">ChildChannelStateEvent</text></g></g><g transform="translate(1,-10) scale(1,1)"><path fill="none" stroke="#000000" d="M 1092 320 Q 691 289 690 235" stroke-miterlimit="10"/></g><g transform="translate(1,-10) scale(1,1)"><path fill="none" stroke="#000000" d="M 690 211 Q 691 173 501 121" stroke-miterlimit="10"/></g><g transform="translate(1,-10) scale(1,1)"><path fill="#FFFFFF" stroke="none" d="M 522.8268187387336 118.24500748703937 L 501 121 L 518.3819654299207 134.4858176538555"/></g><g transform="translate(1,-10) scale(1,1)"><path fill="none" stroke="#000000" d="M 522.8268187387336 118.24500748703937 L 501 121 L 518.3819654299207 134.4858176538555 L 522.8268187387336 118.24500748703937" stroke-miterlimit="10"/></g><g transform="translate(1,-10) scale(1,1)"><rect fill="#C0C0C0" stroke="none" x="2004" y="39" width="67" height="24" opacity="0.2"/></g><g transform="translate(1,-10) scale(1,1)"><rect fill="#ffffff" stroke="none" x="1997" y="32" width="67" height="24"/></g><g transform="translate(1,-10) scale(1,1)"><path fill="none" stroke="#000000" d="M 1997 32 L 2064 32 L 2064 56 L 1997 56 L 1997 32 Z Z" stroke-miterlimit="10"/></g><g transform="translate(1,-10) scale(1,1)"><g><path fill="none" stroke="none"/><text fill="#000000" stroke="none" font-family="Arial" font-size="13px" font-style="normal" font-weight="bold" text-decoration="none" x="2003.5" y="51.5">Channels</text></g></g><g transform="translate(1,-10) scale(1,1)"><rect fill="#C0C0C0" stroke="none" x="487.25" y="323" width="141" height="24" opacity="0.2"/></g><g transform="translate(1,-10) scale(1,1)"><rect fill="#ffffff" stroke="none" x="480.25" y="316" width="141" height="24"/></g><g transform="translate(1,-10) scale(1,1)"><path fill="none" stroke="#000000" d="M 480.25 316 L 621.25 316 L 621.25 340 L 480.25 340 L 480.25 316 Z Z" stroke-miterlimit="10"/></g><g transform="translate(1,-10) scale(1,1)"><g><path fill="none" stroke="none"/><text fill="#000000" stroke="none" font-family="Arial" font-size="13px" font-style="normal" font-weight="bold" text-decoration="none" x="486.75" y="335.5">DefaultMessageEvent</text></g></g><g transform="translate(1,-10) scale(1,1)"><path fill="none" stroke="#000000" d="M 484 315 Q 352 289 351 235" stroke-miterlimit="10"/></g><g transform="translate(1,-10) scale(1,1)"><rect fill="#C0C0C0" stroke="none" x="2541.25" y="283" width="152" height="24" opacity="0.2"/></g><g transform="translate(1,-10) scale(1,1)"><rect fill="#ffffff" stroke="none" x="2534.25" y="276" width="152" height="24"/></g><g transform="translate(1,-10) scale(1,1)"><path fill="none" stroke="#000000" d="M 2534.25 276 L 2686.25 276 L 2686.25 300 L 2534.25 300 L 2534.25 276 Z Z" stroke-miterlimit="10"/></g><g transform="translate(1,-10) scale(1,1)"><g><path fill="none" stroke="none"/><text fill="#000000" stroke="none" font-family="Arial" font-size="13px" font-style="normal" font-weight="bold" text-decoration="none" x="2544.75" y="295.5">SimpleChannelHandler</text></g></g><g transform="translate(1,-10) scale(1,1)"><rect fill="#C0C0C0" stroke="none" x="1904.25" y="231" width="111" height="24" opacity="0.2"/></g><g transform="translate(1,-10) scale(1,1)"><rect fill="#ffffff" stroke="none" x="1897.25" y="224" width="111" height="24"/></g><g transform="translate(1,-10) scale(1,1)"><path fill="none" stroke="#000000" d="M 1897.25 224 L 2008.25 224 L 2008.25 248 L 1897.25 248 L 1897.25 224 Z Z" stroke-miterlimit="10"/></g><g transform="translate(1,-10) scale(1,1)"><g><path fill="none" stroke="none"/><text fill="#000000" stroke="none" font-family="Arial" font-size="13px" font-style="italic" font-weight="bold" text-decoration="none" x="1904.75" y="243.5">AbstractChannel</text></g></g><g transform="translate(1,-10) scale(1,1)"><path fill="none" stroke="#000000" d="M 1938 223 Q 1886 173 1850.7368421052631 107" stroke-miterlimit="10"/></g><g transform="translate(1,-10) scale(1,1)"><path fill="none" stroke="#000000" d="M 1952 223 Q 1952 173 1878 127" stroke-miterlimit="10"/></g><g transform="translate(1,-10) scale(1,1)"><path fill="none" stroke="#000000" d="M 1888.853358679149 128.79014116251722 L 1878 127 L 1884.408662565379 135.9403044759733" stroke-miterlimit="10"/></g><g transform="translate(1,-10) scale(1,1)"><g><path fill="none" stroke="none"/><text fill="#000000" stroke="none" font-family="Arial" font-size="13px" font-style="normal" font-weight="normal" text-decoration="none" x="1871.5" y="159.5">-parent</text></g></g><g transform="translate(1,-10) scale(1,1)"><g><path fill="none" stroke="none"/><text fill="#000000" stroke="none" font-family="Arial" font-size="13px" font-style="normal" font-weight="normal" text-decoration="none" x="1856.5" y="171.5">{readOnly}</text></g></g><g transform="translate(1,-10) scale(1,1)"><path fill="none" stroke="#000000" d="M 2008 223 Q 2221 173 2220 133" stroke-miterlimit="10"/></g><g transform="translate(1,-10) scale(1,1)"><path fill="none" stroke="#000000" d="M 2224.4621904107657 143.05429543717867 L 2220 133 L 2216.045784614716 143.26470558207993" stroke-miterlimit="10"/></g><g transform="translate(1,-10) scale(1,1)"><g><path fill="none" stroke="none"/><text fill="#000000" stroke="none" font-family="Arial" font-size="13px" font-style="normal" font-weight="normal" text-decoration="none" x="2182.5" y="165.5">-factory</text></g></g><g transform="translate(1,-10) scale(1,1)"><g><path fill="none" stroke="none"/><text fill="#000000" stroke="none" font-family="Arial" font-size="13px" font-style="normal" font-weight="normal" text-decoration="none" x="2161.5" y="167.5">{readOnly}</text></g></g><g transform="translate(1,-10) scale(1,1)"><path fill="none" stroke="#000000" d="M 1982 223 Q 2097 173 2087 133" stroke-miterlimit="10"/></g><g transform="translate(1,-10) scale(1,1)"><path fill="none" stroke="#000000" d="M 2093.5486427788624 141.83828477448273 L 2087 133 L 2085.3809786184074 143.8802008145965" stroke-miterlimit="10"/></g><g transform="translate(1,-10) scale(1,1)"><g><path fill="none" stroke="none"/><text fill="#000000" stroke="none" font-family="Arial" font-size="13px" font-style="normal" font-weight="normal" text-decoration="none" x="2053.5" y="167.5">-pipeline</text></g></g><g transform="translate(1,-10) scale(1,1)"><g><path fill="none" stroke="none"/><text fill="#000000" stroke="none" font-family="Arial" font-size="13px" font-style="normal" font-weight="normal" text-decoration="none" x="2035.5" y="173.5">{readOnly}</text></g></g><g transform="translate(1,-10) scale(1,1)"><path fill="none" stroke="#000000" d="M 1896 229 Q 1415 173 1403 133" stroke-miterlimit="10"/></g><g transform="translate(1,-10) scale(1,1)"><path fill="none" stroke="#000000" d="M 1409.9522098868538 141.52448108034335 L 1403 133 L 1401.8882363772193 143.94367313323372" stroke-miterlimit="10"/></g><g transform="translate(1,-10) scale(1,1)"><g><path fill="none" stroke="none"/><text fill="#000000" stroke="none" font-family="Arial" font-size="13px" font-style="normal" font-weight="normal" text-decoration="none" x="1343.5" y="168.5">-succeededFuture</text></g></g><g transform="translate(1,-10) scale(1,1)"><g><path fill="none" stroke="none"/><text fill="#000000" stroke="none" font-family="Arial" font-size="13px" font-style="normal" font-weight="normal" text-decoration="none" x="1353.5" y="174.5">{readOnly}</text></g></g><g transform="translate(1,-10) scale(1,1)"><path fill="#C0C0C0" stroke="none" d="M 203.5 230.5 C 203.5 224.1487248 208.6487248 219 215 219 C 221.3512752 219 226.5 224.1487248 226.5 230.5 C 226.5 236.8512752 221.3512752 242 215 242 C 208.6487248 242 203.5 236.8512752 203.5 230.5 Z" opacity="0.2"/></g><g transform="translate(1,-10) scale(1,1)"><path fill="#ffffff" stroke="none" d="M 196.5 223.5 C 196.5 217.1487248 201.6487248 212 208 212 C 214.3512752 212 219.5 217.1487248 219.5 223.5 C 219.5 229.8512752 214.3512752 235 208 235 C 201.6487248 235 196.5 229.8512752 196.5 223.5 Z"/></g><g transform="translate(1,-10) scale(1,1)"><path fill="none" stroke="#000000" d="M 196.5 223.5 C 196.5 217.1487248 201.6487248 212 208 212 C 214.3512752 212 219.5 217.1487248 219.5 223.5 C 219.5 229.8512752 214.3512752 235 208 235 C 201.6487248 235 196.5 229.8512752 196.5 223.5 Z" stroke-miterlimit="10"/></g><g transform="translate(1,-10) scale(1,1)"><g><path fill="none" stroke="none"/><text fill="#000000" stroke="none" font-family="Arial" font-size="13px" font-style="normal" font-weight="bold" text-decoration="none" x="152" y="254.5">ChannelStateEvent</text></g></g><g transform="translate(1,-10) scale(1,1)"><path fill="none" stroke="#000000" d="M 208 315 Q 209 289 208 235" stroke-miterlimit="10"/></g><g transform="translate(1,-10) scale(1,1)"><path fill="none" stroke="#000000" d="M 208 211 Q 209 173 404 121" stroke-miterlimit="10"/></g><g transform="translate(1,-10) scale(1,1)"><path fill="#FFFFFF" stroke="none" d="M 386.53020795070455 134.37184975066555 L 404 121 L 382.1916659403211 118.10231721172761"/></g><g transform="translate(1,-10) scale(1,1)"><path fill="none" stroke="#000000" d="M 386.53020795070455 134.37184975066555 L 404 121 L 382.1916659403211 118.10231721172761 L 386.53020795070455 134.37184975066555" stroke-miterlimit="10"/></g><g transform="translate(1,-10) scale(1,1)"><rect fill="#C0C0C0" stroke="none" x="1216" y="231" width="154" height="24" opacity="0.2"/></g><g transform="translate(1,-10) scale(1,1)"><rect fill="#ffffff" stroke="none" x="1209" y="224" width="154" height="24"/></g><g transform="translate(1,-10) scale(1,1)"><path fill="none" stroke="#000000" d="M 1209 224 L 1363 224 L 1363 248 L 1209 248 L 1209 224 Z Z" stroke-miterlimit="10"/></g><g transform="translate(1,-10) scale(1,1)"><g><path fill="none" stroke="none"/><text fill="#000000" stroke="none" font-family="Arial" font-size="13px" font-style="normal" font-weight="bold" text-decoration="none" x="1219" y="243.5">DefaultChannelPipeline</text></g></g><g transform="translate(1,-10) scale(1,1)"><path fill="none" stroke="#000000" d="M 1364 230 Q 2067 173 2079.4210526315787 107" stroke-miterlimit="10"/></g><g transform="translate(1,-10) scale(1,1)"><path fill="none" stroke="#000000" d="M 1246 223 Q 1091 173 1090 133" stroke-miterlimit="10"/></g><g transform="translate(1,-10) scale(1,1)"><path fill="none" stroke="#000000" d="M 1094.4621904107655 143.05429543717867 L 1090 133 L 1086.045784614716 143.26470558207993" stroke-miterlimit="10"/></g><g transform="translate(1,-10) scale(1,1)"><g><path fill="none" stroke="none"/><text fill="#000000" stroke="none" font-family="Arial" font-size="13px" font-style="normal" font-weight="normal" text-decoration="none" x="1030.5" y="165.5">-discardingSink</text></g></g><g transform="translate(1,-10) scale(1,1)"><g><path fill="none" stroke="none"/><text fill="#000000" stroke="none" font-family="Arial" font-size="13px" font-style="normal" font-weight="normal" text-decoration="none" x="1031.5" y="167.5">{readOnly}</text></g></g><g transform="translate(1,-10) scale(1,1)"><path fill="none" stroke="#000000" d="M 1334 223 Q 1518 173 1816 114" stroke-miterlimit="10"/></g><g transform="translate(1,-10) scale(1,1)"><path fill="none" stroke="#000000" d="M 1806.84839451 120.1031235408928 L 1816 114 L 1805.2132776570922 111.84439774146144" stroke-miterlimit="10"/></g><g transform="translate(1,-10) scale(1,1)"><g><path fill="none" stroke="none"/><text fill="#000000" stroke="none" font-family="Arial" font-size="13px" font-style="normal" font-weight="normal" text-decoration="none" x="1762.5" y="110.5">-channel</text></g></g><g transform="translate(1,-10) scale(1,1)"><g><path fill="none" stroke="none"/><text fill="#000000" stroke="none" font-family="Arial" font-size="13px" font-style="normal" font-weight="normal" text-decoration="none" x="1742.5" y="97.5">{volatile=true}</text></g></g><g transform="translate(1,-10) scale(1,1)"><path fill="none" stroke="#000000" d="M 1252 223 Q 1121 173 1102 133" stroke-miterlimit="10"/></g><g transform="translate(1,-10) scale(1,1)"><path fill="none" stroke="#000000" d="M 1110.1627275950946 140.37359330369398 L 1102 133 L 1102.5580022087163 143.9858378622237" stroke-miterlimit="10"/></g><g transform="translate(1,-10) scale(1,1)"><g><path fill="none" stroke="none"/><text fill="#000000" stroke="none" font-family="Arial" font-size="13px" font-style="normal" font-weight="normal" text-decoration="none" x="1084.5" y="168.5">-sink</text></g></g><g transform="translate(1,-10) scale(1,1)"><g><path fill="none" stroke="none"/><text fill="#000000" stroke="none" font-family="Arial" font-size="13px" font-style="normal" font-weight="normal" text-decoration="none" x="1048.5" y="176.5">{volatile=true}</text></g></g><g transform="translate(1,-10) scale(1,1)"><rect fill="#C0C0C0" stroke="none" x="1047" y="231" width="138" height="24" opacity="0.2"/></g><g transform="translate(1,-10) scale(1,1)"><rect fill="#ffffff" stroke="none" x="1040" y="224" width="138" height="24"/></g><g transform="translate(1,-10) scale(1,1)"><path fill="none" stroke="#000000" d="M 1040 224 L 1178 224 L 1178 248 L 1040 248 L 1040 224 Z Z" stroke-miterlimit="10"/></g><g transform="translate(1,-10) scale(1,1)"><g><path fill="none" stroke="none"/><text fill="#000000" stroke="none" font-family="Arial" font-size="13px" font-style="normal" font-weight="bold" text-decoration="none" x="1048" y="243.5">DefaultChannelEvent</text></g></g><g transform="translate(1,-10) scale(1,1)"><path fill="none" stroke="#000000" d="M 1207 315 Q 1236 289 1140 249" stroke-miterlimit="10"/></g><g transform="translate(1,-10) scale(1,1)"><path fill="#FFFFFF" stroke="none" d="M 1161.9999518571647 249.0460248024506 L 1140 249 L 1155.5237706940632 264.58885959389426"/></g><g transform="translate(1,-10) scale(1,1)"><path fill="none" stroke="#000000" d="M 1161.9999518571647 249.0460248024506 L 1140 249 L 1155.5237706940632 264.58885959389426 L 1161.9999518571647 249.0460248024506" stroke-miterlimit="10"/></g><g transform="translate(1,-10) scale(1,1)"><path fill="none" stroke="#000000" d="M 294 322 Q 769 289 1039 247" stroke-miterlimit="10"/></g><g transform="translate(1,-10) scale(1,1)"><path fill="#FFFFFF" stroke="none" d="M 1020.2102519534309 258.4431362985177 L 1039 247 L 1017.6221224647605 241.8051610142081"/></g><g transform="translate(1,-10) scale(1,1)"><path fill="none" stroke="#000000" d="M 1020.2102519534309 258.4431362985177 L 1039 247 L 1017.6221224647605 241.8051610142081 L 1020.2102519534309 258.4431362985177" stroke-miterlimit="10"/></g><g transform="translate(1,-10) scale(1,1)"><path fill="none" stroke="#000000" d="M 622 322 Q 1022 289 1088 249" stroke-miterlimit="10"/></g><g transform="translate(1,-10) scale(1,1)"><path fill="#FFFFFF" stroke="none" d="M 1074.9814055516795 266.73460455127656 L 1088 249 L 1066.2542044442057 252.33472272394457"/></g><g transform="translate(1,-10) scale(1,1)"><path fill="none" stroke="#000000" d="M 1074.9814055516795 266.73460455127656 L 1088 249 L 1066.2542044442057 252.33472272394457 L 1074.9814055516795 266.73460455127656" stroke-miterlimit="10"/></g><g transform="translate(1,-10) scale(1,1)"><path fill="none" stroke="#000000" d="M 1039 227 Q 609 173 463.75 102.91326530612245" stroke-miterlimit="10"/></g><g transform="translate(1,-10) scale(1,1)"><path fill="none" stroke="#000000" d="M 1179 224 Q 1475 173 1816 113" stroke-miterlimit="10"/></g><g transform="translate(1,-10) scale(1,1)"><path fill="none" stroke="#000000" d="M 1806.7205513362958 118.90693088648213 L 1816 113 L 1805.2616080383905 110.61526981005403" stroke-miterlimit="10"/></g><g transform="translate(1,-10) scale(1,1)"><g><path fill="none" stroke="none"/><text fill="#000000" stroke="none" font-family="Arial" font-size="13px" font-style="normal" font-weight="normal" text-decoration="none" x="1762.5" y="108.5">-channel</text></g></g><g transform="translate(1,-10) scale(1,1)"><g><path fill="none" stroke="none"/><text fill="#000000" stroke="none" font-family="Arial" font-size="13px" font-style="normal" font-weight="normal" text-decoration="none" x="1752.5" y="96.5">{readOnly}</text></g></g><g transform="translate(1,-10) scale(1,1)"><path fill="none" stroke="#000000" d="M 1160 223 Q 1355 173 1380 133" stroke-miterlimit="10"/></g><g transform="translate(1,-10) scale(1,1)"><path fill="none" stroke="#000000" d="M 1378.1834570156432 143.84897099203346 L 1380 133 L 1371.0441291800814 139.3868910948074" stroke-miterlimit="10"/></g><g transform="translate(1,-10) scale(1,1)"><g><path fill="none" stroke="none"/><text fill="#000000" stroke="none" font-family="Arial" font-size="13px" font-style="normal" font-weight="normal" text-decoration="none" x="1334.5" y="153.5">-future</text></g></g><g transform="translate(1,-10) scale(1,1)"><g><path fill="none" stroke="none"/><text fill="#000000" stroke="none" font-family="Arial" font-size="13px" font-style="normal" font-weight="normal" text-decoration="none" x="1310.5" y="147.5">{readOnly}</text></g></g><g transform="translate(1,-10) scale(1,1)"><rect fill="#C0C0C0" stroke="none" x="1470" y="231" width="159" height="24" opacity="0.2"/></g><g transform="translate(1,-10) scale(1,1)"><rect fill="#ffffff" stroke="none" x="1463" y="224" width="159" height="24"/></g><g transform="translate(1,-10) scale(1,1)"><path fill="none" stroke="#000000" d="M 1463 224 L 1622 224 L 1622 248 L 1463 248 L 1463 224 Z Z" stroke-miterlimit="10"/></g><g transform="translate(1,-10) scale(1,1)"><g><path fill="none" stroke="none"/><text fill="#000000" stroke="none" font-family="Arial" font-size="13px" font-style="italic" font-weight="bold" text-decoration="none" x="1473" y="243.5">CompleteChannelFuture</text></g></g><g transform="translate(1,-10) scale(1,1)"><path fill="none" stroke="#000000" d="M 1556 315 Q 1512 289 1535 249" stroke-miterlimit="10"/></g><g transform="translate(1,-10) scale(1,1)"><path fill="#FFFFFF" stroke="none" d="M 1532.1669150275472 270.81681987684874 L 1535 249 L 1517.5698851254558 262.4235276831461"/></g><g transform="translate(1,-10) scale(1,1)"><path fill="none" stroke="#000000" d="M 1532.1669150275472 270.81681987684874 L 1535 249 L 1517.5698851254558 262.4235276831461 L 1532.1669150275472 270.81681987684874" stroke-miterlimit="10"/></g><g transform="translate(1,-10) scale(1,1)"><path fill="none" stroke="#000000" d="M 1720 315 Q 1635 289 1565 249" stroke-miterlimit="10"/></g><g transform="translate(1,-10) scale(1,1)"><path fill="#FFFFFF" stroke="none" d="M 1586.8243568424737 251.7744275828306 L 1565 249 L 1578.4703341606175 266.39396727607874"/></g><g transform="translate(1,-10) scale(1,1)"><path fill="none" stroke="#000000" d="M 1586.8243568424737 251.7744275828306 L 1565 249 L 1578.4703341606175 266.39396727607874 L 1586.8243568424737 251.7744275828306" stroke-miterlimit="10"/></g><g transform="translate(1,-10) scale(1,1)"><path fill="none" stroke="#000000" d="M 1510 223 Q 1385 173 1394.7368421052631 107" stroke-miterlimit="10"/></g><g transform="translate(1,-10) scale(1,1)"><path fill="none" stroke="#000000" d="M 1600 223 Q 1823 173 1837 133" stroke-miterlimit="10"/></g><g transform="translate(1,-10) scale(1,1)"><path fill="none" stroke="#000000" d="M 1837.615944554697 143.98274156599976 L 1837 133 L 1829.6695675341234 141.201509608799" stroke-miterlimit="10"/></g><g transform="translate(1,-10) scale(1,1)"><g><path fill="none" stroke="none"/><text fill="#000000" stroke="none" font-family="Arial" font-size="13px" font-style="normal" font-weight="normal" text-decoration="none" x="1789.5" y="158.5">-channel</text></g></g><g transform="translate(1,-10) scale(1,1)"><g><path fill="none" stroke="none"/><text fill="#000000" stroke="none" font-family="Arial" font-size="13px" font-style="normal" font-weight="normal" text-decoration="none" x="1769.5" y="156.5">{readOnly}</text></g></g><g transform="translate(1,-10) scale(1,1)"><path fill="#C0C0C0" stroke="none" d="M 2451.5 38.5 C 2451.5 32.1487248 2456.6487248 27 2463 27 C 2469.3512752 27 2474.5 32.1487248 2474.5 38.5 C 2474.5 44.8512752 2469.3512752 50 2463 50 C 2456.6487248 50 2451.5 44.8512752 2451.5 38.5 Z" opacity="0.2"/></g><g transform="translate(1,-10) scale(1,1)"><path fill="#ffffff" stroke="none" d="M 2444.5 31.5 C 2444.5 25.1487248 2449.6487248 20 2456 20 C 2462.3512752 20 2467.5 25.1487248 2467.5 31.5 C 2467.5 37.8512752 2462.3512752 43 2456 43 C 2449.6487248 43 2444.5 37.8512752 2444.5 31.5 Z"/></g><g transform="translate(1,-10) scale(1,1)"><path fill="none" stroke="#000000" d="M 2444.5 31.5 C 2444.5 25.1487248 2449.6487248 20 2456 20 C 2462.3512752 20 2467.5 25.1487248 2467.5 31.5 C 2467.5 37.8512752 2462.3512752 43 2456 43 C 2449.6487248 43 2444.5 37.8512752 2444.5 31.5 Z" stroke-miterlimit="10"/></g><g transform="translate(1,-10) scale(1,1)"><g><path fill="none" stroke="none"/><text fill="#000000" stroke="none" font-family="Arial" font-size="13px" font-style="normal" font-weight="bold" text-decoration="none" x="2410.5" y="62.5">ChannelHandler</text></g></g><g transform="translate(1,-10) scale(1,1)"><path fill="none" stroke="#000000" d="M 2343 147 Q 2344 109 2413 69" stroke-miterlimit="10"/></g><g transform="translate(1,-10) scale(1,1)"><path fill="#FFFFFF" stroke="none" d="M 2399.638129465523 86.4774258922724 L 2413 69 L 2391.1933243696235 71.91013710184569"/></g><g transform="translate(1,-10) scale(1,1)"><path fill="none" stroke="#000000" d="M 2399.638129465523 86.4774258922724 L 2413 69 L 2391.1933243696235 71.91013710184569 L 2399.638129465523 86.4774258922724" stroke-miterlimit="10"/></g><g transform="translate(1,-10) scale(1,1)"><rect fill="#C0C0C0" stroke="none" x="2548" y="32.5" width="169" height="37" opacity="0.2"/></g><g transform="translate(1,-10) scale(1,1)"><rect fill="#ffffff" stroke="none" x="2541" y="25.5" width="169" height="37"/></g><g transform="translate(1,-10) scale(1,1)"><path fill="none" stroke="#000000" d="M 2541 25.5 L 2710 25.5 L 2710 62.5 L 2541 62.5 L 2541 25.5 Z Z" stroke-miterlimit="10"/></g><g transform="translate(1,-10) scale(1,1)"><g><path fill="none" stroke="none"/><text fill="#000000" stroke="none" font-family="Arial" font-size="13px" font-style="normal" font-weight="normal" text-decoration="none" x="2574" y="43">«annotationType»</text></g></g><g transform="translate(1,-10) scale(1,1)"><g><path fill="none" stroke="none"/><text fill="#000000" stroke="none" font-family="Arial" font-size="13px" font-style="normal" font-weight="bold" text-decoration="none" x="2551.5" y="58">ChannelPipelineCoverage</text></g></g><g transform="translate(1,-10) scale(1,1)"><rect fill="#C0C0C0" stroke="none" x="1157.75" y="167" width="173" height="24" opacity="0.2"/></g><g transform="translate(1,-10) scale(1,1)"><rect fill="#ffffff" stroke="none" x="1150.75" y="160" width="173" height="24"/></g><g transform="translate(1,-10) scale(1,1)"><path fill="none" stroke="#000000" d="M 1150.75 160 L 1323.75 160 L 1323.75 184 L 1150.75 184 L 1150.75 160 Z Z" stroke-miterlimit="10"/></g><g transform="translate(1,-10) scale(1,1)"><g><path fill="none" stroke="none"/><text fill="#000000" stroke="none" font-family="Arial" font-size="13px" font-style="normal" font-weight="bold" text-decoration="none" x="1161.75" y="179.5">ChannelPipelineException</text></g></g><g transform="translate(1,-10) scale(1,1)"><path fill="none" stroke="#000000" d="M 1237 159 Q 1238 109 1237 57" stroke-miterlimit="10"/></g><g transform="translate(1,-10) scale(1,1)"><path fill="#FFFFFF" stroke="none" d="M 1245.8082790226806 77.15971777229547 L 1237 57 L 1228.9733206839235 77.48346697111772"/></g><g transform="translate(1,-10) scale(1,1)"><path fill="none" stroke="#000000" d="M 1245.8082790226806 77.15971777229547 L 1237 57 L 1228.9733206839235 77.48346697111772 L 1245.8082790226806 77.15971777229547" stroke-miterlimit="10"/></g><g transform="translate(1,-10) scale(1,1)"><rect fill="#C0C0C0" stroke="none" x="1884.25" y="323" width="151" height="24" opacity="0.2"/></g><g transform="translate(1,-10) scale(1,1)"><rect fill="#ffffff" stroke="none" x="1877.25" y="316" width="151" height="24"/></g><g transform="translate(1,-10) scale(1,1)"><path fill="none" stroke="#000000" d="M 1877.25 316 L 2028.25 316 L 2028.25 340 L 1877.25 340 L 1877.25 316 Z Z" stroke-miterlimit="10"/></g><g transform="translate(1,-10) scale(1,1)"><g><path fill="none" stroke="none"/><text fill="#000000" stroke="none" font-family="Arial" font-size="13px" font-style="italic" font-weight="bold" text-decoration="none" x="1885.75" y="335.5">AbstractServerChannel</text></g></g><g transform="translate(1,-10) scale(1,1)"><path fill="none" stroke="#000000" d="M 1952 315 Q 1953 289 1952 249" stroke-miterlimit="10"/></g><g transform="translate(1,-10) scale(1,1)"><path fill="#FFFFFF" stroke="none" d="M 1960.924380821531 269.10859087435733 L 1952 249 L 1944.0915692294318 269.52941116415985"/></g><g transform="translate(1,-10) scale(1,1)"><path fill="none" stroke="#000000" d="M 1960.924380821531 269.10859087435733 L 1952 249 L 1944.0915692294318 269.52941116415985 L 1960.924380821531 269.10859087435733" stroke-miterlimit="10"/></g><g transform="translate(1,-10) scale(1,1)"><path fill="#C0C0C0" stroke="none" d="M 2546 166.5 C 2546 160.1487248 2551.1487248 155 2557.5 155 C 2563.8512752 155 2569 160.1487248 2569 166.5 C 2569 172.8512752 2563.8512752 178 2557.5 178 C 2551.1487248 178 2546 172.8512752 2546 166.5 Z" opacity="0.2"/></g><g transform="translate(1,-10) scale(1,1)"><path fill="#ffffff" stroke="none" d="M 2539 159.5 C 2539 153.1487248 2544.1487248 148 2550.5 148 C 2556.8512752 148 2562 153.1487248 2562 159.5 C 2562 165.8512752 2556.8512752 171 2550.5 171 C 2544.1487248 171 2539 165.8512752 2539 159.5 Z"/></g><g transform="translate(1,-10) scale(1,1)"><path fill="none" stroke="#000000" d="M 2539 159.5 C 2539 153.1487248 2544.1487248 148 2550.5 148 C 2556.8512752 148 2562 153.1487248 2562 159.5 C 2562 165.8512752 2556.8512752 171 2550.5 171 C 2544.1487248 171 2539 165.8512752 2539 159.5 Z" stroke-miterlimit="10"/></g><g transform="translate(1,-10) scale(1,1)"><g><path fill="none" stroke="none"/><text fill="#000000" stroke="none" font-family="Arial" font-size="13px" font-style="normal" font-weight="bold" text-decoration="none" x="2477" y="190.5">ChannelUpstreamHandler</text></g></g><g transform="translate(1,-10) scale(1,1)"><path fill="none" stroke="#000000" d="M 2610 275 Q 2611 237 2557.2631578947367 171" stroke-miterlimit="10"/></g><g transform="translate(1,-10) scale(1,1)"><path fill="none" stroke="#000000" d="M 2550 147 Q 2551 109 2493 69" stroke-miterlimit="10"/></g><g transform="translate(1,-10) scale(1,1)"><path fill="#FFFFFF" stroke="none" d="M 2514.5118516800544 73.60871319300125 L 2493 69 L 2504.9523238475304 87.47002855016073"/></g><g transform="translate(1,-10) scale(1,1)"><path fill="none" stroke="#000000" d="M 2514.5118516800544 73.60871319300125 L 2493 69 L 2504.9523238475304 87.47002855016073 L 2514.5118516800544 73.60871319300125" stroke-miterlimit="10"/></g><g transform="translate(1,-10) scale(1,1)"><rect fill="#C0C0C0" stroke="none" x="659.25" y="323" width="149" height="24" opacity="0.2"/></g><g transform="translate(1,-10) scale(1,1)"><rect fill="#ffffff" stroke="none" x="652.25" y="316" width="149" height="24"/></g><g transform="translate(1,-10) scale(1,1)"><path fill="none" stroke="#000000" d="M 652.25 316 L 801.25 316 L 801.25 340 L 652.25 340 L 652.25 316 Z Z" stroke-miterlimit="10"/></g><g transform="translate(1,-10) scale(1,1)"><g><path fill="none" stroke="none"/><text fill="#000000" stroke="none" font-family="Arial" font-size="13px" font-style="normal" font-weight="bold" text-decoration="none" x="660.25" y="335.5">DefaultExceptionEvent</text></g></g><g transform="translate(1,-10) scale(1,1)"><path fill="none" stroke="#000000" d="M 802 321 Q 1125 289 1113 249" stroke-miterlimit="10"/></g><g transform="translate(1,-10) scale(1,1)"><path fill="#FFFFFF" stroke="none" d="M 1126.9044197737076 266.0489621606867 L 1113 249 L 1110.7764727544386 270.88734626646743"/></g><g transform="translate(1,-10) scale(1,1)"><path fill="none" stroke="#000000" d="M 1126.9044197737076 266.0489621606867 L 1113 249 L 1110.7764727544386 270.88734626646743 L 1126.9044197737076 266.0489621606867" stroke-miterlimit="10"/></g><g transform="translate(1,-10) scale(1,1)"><path fill="none" stroke="#000000" d="M 653 315 Q 506 289 505 235" stroke-miterlimit="10"/></g><g transform="translate(1,-10) scale(1,1)"><rect fill="#C0C0C0" stroke="none" x="2046.25" y="231" width="143" height="24" opacity="0.2"/></g><g transform="translate(1,-10) scale(1,1)"><rect fill="#ffffff" stroke="none" x="2039.25" y="224" width="143" height="24"/></g><g transform="translate(1,-10) scale(1,1)"><path fill="none" stroke="#000000" d="M 2039.25 224 L 2182.25 224 L 2182.25 248 L 2039.25 248 L 2039.25 224 Z Z" stroke-miterlimit="10"/></g><g transform="translate(1,-10) scale(1,1)"><g><path fill="none" stroke="none"/><text fill="#000000" stroke="none" font-family="Arial" font-size="13px" font-style="normal" font-weight="bold" text-decoration="none" x="2048.25" y="243.5">DefaultChannelFuture</text></g></g><g transform="translate(1,-10) scale(1,1)"><path fill="none" stroke="#000000" d="M 2038 229 Q 1445 173 1402 107" stroke-miterlimit="10"/></g><g transform="translate(1,-10) scale(1,1)"><path fill="none" stroke="#000000" d="M 2095 223 Q 2037 173 1878 119" stroke-miterlimit="10"/></g><g transform="translate(1,-10) scale(1,1)"><path fill="none" stroke="#000000" d="M 1888.9765566486128 118.28222277843773 L 1878 119 L 1886.2691427810603 126.25405249956448" stroke-miterlimit="10"/></g><g transform="translate(1,-10) scale(1,1)"><g><path fill="none" stroke="none"/><text fill="#000000" stroke="none" font-family="Arial" font-size="13px" font-style="normal" font-weight="normal" text-decoration="none" x="1872.5" y="147.5">-channel</text></g></g><g transform="translate(1,-10) scale(1,1)"><g><path fill="none" stroke="none"/><text fill="#000000" stroke="none" font-family="Arial" font-size="13px" font-style="normal" font-weight="normal" text-decoration="none" x="1864.5" y="160.5">{readOnly}</text></g></g><g transform="translate(1,-10) scale(1,1)"><path fill="none" stroke="#000000" d="M 2183 231 Q 3038 173 3047 133" stroke-miterlimit="10"/></g><g transform="translate(1,-10) scale(1,1)"><path fill="none" stroke="#000000" d="M 3048.8760155249274 143.8388452221734 L 3047 133 L 3040.662322342457 141.99076425611761" stroke-miterlimit="10"/></g><g transform="translate(1,-10) scale(1,1)"><g><path fill="none" stroke="none"/><text fill="#000000" stroke="none" font-family="Arial" font-size="13px" font-style="normal" font-weight="normal" text-decoration="none" x="2989.5" y="161.5">-firstListener</text></g></g><g transform="translate(1,-10) scale(1,1)"><path fill="none" stroke="#000000" d="M 2183 231 Q 3068 173 3058 133" stroke-miterlimit="10"/></g><g transform="translate(1,-10) scale(1,1)"><path fill="none" stroke="#000000" d="M 3064.5486427788624 141.83828477448273 L 3058 133 L 3056.3809786184074 143.8802008145965" stroke-miterlimit="10"/></g><g transform="translate(1,-10) scale(1,1)"><g><path fill="none" stroke="none"/><text fill="#000000" stroke="none" font-family="Arial" font-size="13px" font-style="normal" font-weight="normal" text-decoration="none" x="3005.5" y="167.5">-otherListeners</text></g></g><g transform="translate(1,-10) scale(1,1)"><g><path fill="none" stroke="none"/><text fill="#000000" stroke="none" font-family="Arial" font-size="13px" font-style="normal" font-weight="normal" text-decoration="none" x="2985.5" y="173.5">{collection="List"}</text></g></g><g transform="translate(1,-10) scale(1,1)"><g><path fill="none" stroke="none"/><text fill="#000000" stroke="none" font-family="Arial" font-size="13px" font-style="normal" font-weight="normal" text-decoration="none" x="3072.5" y="156.5">*</text></g></g><g transform="translate(1,-10) scale(1,1)"><path fill="#C0C0C0" stroke="none" d="M 2815 38.5 C 2815 32.1487248 2820.1487248 27 2826.5 27 C 2832.8512752 27 2838 32.1487248 2838 38.5 C 2838 44.8512752 2832.8512752 50 2826.5 50 C 2820.1487248 50 2815 44.8512752 2815 38.5 Z" opacity="0.2"/></g><g transform="translate(1,-10) scale(1,1)"><path fill="#ffffff" stroke="none" d="M 2808 31.5 C 2808 25.1487248 2813.1487248 20 2819.5 20 C 2825.8512752 20 2831 25.1487248 2831 31.5 C 2831 37.8512752 2825.8512752 43 2819.5 43 C 2813.1487248 43 2808 37.8512752 2808 31.5 Z"/></g><g transform="translate(1,-10) scale(1,1)"><path fill="none" stroke="#000000" d="M 2808 31.5 C 2808 25.1487248 2813.1487248 20 2819.5 20 C 2825.8512752 20 2831 25.1487248 2831 31.5 C 2831 37.8512752 2825.8512752 43 2819.5 43 C 2813.1487248 43 2808 37.8512752 2808 31.5 Z" stroke-miterlimit="10"/></g><g transform="translate(1,-10) scale(1,1)"><g><path fill="none" stroke="none"/><text fill="#000000" stroke="none" font-family="Arial" font-size="13px" font-style="normal" font-weight="bold" text-decoration="none" x="2751" y="62.5">ChannelPipelineFactory</text></g></g><g transform="translate(1,-10) scale(1,1)"><rect fill="#C0C0C0" stroke="none" x="2936" y="31.5" width="19.59999999999991" height="15" opacity="0.2"/></g><g transform="translate(1,-10) scale(1,1)"><rect fill="#C0C0C0" stroke="none" x="2936" y="45.5" width="49" height="25" opacity="0.2"/></g><g transform="translate(1,-10) scale(1,1)"><rect fill="#ffffff" stroke="none" x="2929" y="39.5" width="49" height="24"/></g><g transform="translate(1,-10) scale(1,1)"><path fill="none" stroke="#000000" d="M 2929 39.5 L 2978 39.5 L 2978 63.5 L 2929 63.5 L 2929 39.5 Z Z" stroke-miterlimit="10"/></g><g transform="translate(1,-10) scale(1,1)"><rect fill="#ffffff" stroke="none" x="2929" y="24.5" width="19.59999999999991" height="15"/></g><g transform="translate(1,-10) scale(1,1)"><path fill="none" stroke="#000000" d="M 2929 24.5 L 2948.6 24.5 L 2948.6 39.5 L 2929 39.5 L 2929 24.5 Z Z" stroke-miterlimit="10"/></g><g transform="translate(1,-10) scale(1,1)"><rect fill="#ffffff" stroke="none" x="2929" y="38.5" width="49" height="25"/></g><g transform="translate(1,-10) scale(1,1)"><path fill="none" stroke="#000000" d="M 2929 38.5 L 2978 38.5 L 2978 63.5 L 2929 63.5 L 2929 38.5 Z Z" stroke-miterlimit="10"/></g><g transform="translate(1,-10) scale(1,1)"><g><path fill="none" stroke="none"/><text fill="#000000" stroke="none" font-family="Arial" font-size="13px" font-style="normal" font-weight="bold" text-decoration="none" x="2934" y="59">socket</text></g></g></g></svg>